<svg width="80" height="80" viewBox="0 0 80 80" fill="none" xmlns="http://www.w3.org/2000/svg">
<g clip-path="url(#clip0_1635_733)">
<path d="M64.7001 61.5345L70.3081 31.4225C70.5561 30.0905 69.1381 29.0705 67.9541 29.7325L57.9621 35.3185C55.1721 36.8785 51.6501 35.9765 49.9521 33.2685L41.3561 19.5625C40.7281 18.5625 39.2721 18.5625 38.6461 19.5625L30.0501 33.2685C28.3521 35.9765 24.8301 36.8765 22.0401 35.3185L12.0481 29.7325C10.8641 29.0705 9.44605 30.0885 9.69405 31.4225L15.3021 61.5345" fill="#FFCD00"/>
<path d="M61.5338 71.0332H18.4658C16.5658 71.0332 15.2998 69.7672 15.2998 67.8672V61.5332H64.6998V67.8672C64.6998 69.4512 63.4338 71.0332 61.5338 71.0332Z" fill="#FFAD00"/>
<path d="M40.0001 18.8097C42.798 18.8097 45.0661 16.5416 45.0661 13.7437C45.0661 10.9459 42.798 8.67773 40.0001 8.67773C37.2022 8.67773 34.9341 10.9459 34.9341 13.7437C34.9341 16.5416 37.2022 18.8097 40.0001 18.8097Z" fill="#FFAD00"/>
<path d="M72.9342 31.132C75.732 31.132 78.0002 28.8639 78.0002 26.066C78.0002 23.2681 75.732 21 72.9342 21C70.1363 21 67.8682 23.2681 67.8682 26.066C67.8682 28.8639 70.1363 31.132 72.9342 31.132Z" fill="#FFAD00"/>
<path d="M7.066 31.132C9.86387 31.132 12.132 28.8639 12.132 26.066C12.132 23.2681 9.86387 21 7.066 21C4.26813 21 2 23.2681 2 26.066C2 28.8639 4.26813 31.132 7.066 31.132Z" fill="#FFAD00"/>
</g>
<defs>
<clipPath id="clip0_1635_733">
<rect width="80" height="80" fill="white"/>
</clipPath>
</defs>
</svg>
