<svg width="40" height="40" viewBox="0 0 40 40" fill="none" xmlns="http://www.w3.org/2000/svg">
<g clip-path="url(#clip0_1635_742)">
<path d="M19.9998 37.4996C26.8757 37.4996 32.4498 31.9256 32.4498 25.0496C32.4498 18.1737 26.8757 12.5996 19.9998 12.5996C13.1239 12.5996 7.5498 18.1737 7.5498 25.0496C7.5498 31.9256 13.1239 37.4996 19.9998 37.4996Z" fill="#6E4944"/>
<path d="M8.63781 30.0746C11.3904 30.0746 13.6218 27.9819 13.6218 25.4006C13.6218 22.8192 11.3904 20.7266 8.63781 20.7266C5.88522 20.7266 3.65381 22.8192 3.65381 25.4006C3.65381 27.9819 5.88522 30.0746 8.63781 30.0746Z" fill="#6E4944"/>
<path d="M31.3619 30.0746C34.1145 30.0746 36.3459 27.9819 36.3459 25.4006C36.3459 22.8192 34.1145 20.7266 31.3619 20.7266C28.6093 20.7266 26.3779 22.8192 26.3779 25.4006C26.3779 27.9819 28.6093 30.0746 31.3619 30.0746Z" fill="#6E4944"/>
<path d="M34.2596 21.4801C34.3856 12.9321 27.0316 5.95306 18.3226 6.88906C11.6246 7.60806 6.26065 13.0521 5.62965 19.7591C5.56565 20.4411 5.54865 21.1151 5.57765 21.7771C5.57765 21.7771 6.79465 21.4871 7.87665 23.8371L16.0886 14.6481C16.0886 14.6481 26.0586 22.6551 32.6376 22.2181C32.7826 22.2081 32.9496 22.1581 33.1146 22.0871C33.5536 21.8401 33.9226 21.3821 34.2596 21.4801Z" fill="#333333"/>
<path d="M16.6829 26.0374C17.4147 26.0374 18.0079 25.3256 18.0079 24.4474C18.0079 23.5693 17.4147 22.8574 16.6829 22.8574C15.9511 22.8574 15.3579 23.5693 15.3579 24.4474C15.3579 25.3256 15.9511 26.0374 16.6829 26.0374Z" fill="black"/>
<path d="M23.679 26.0374C24.4108 26.0374 25.004 25.3256 25.004 24.4474C25.004 23.5693 24.4108 22.8574 23.679 22.8574C22.9472 22.8574 22.354 23.5693 22.354 24.4474C22.354 25.3256 22.9472 26.0374 23.679 26.0374Z" fill="black"/>
<path d="M21.8286 30.7168C22.1266 30.7168 22.3376 31.0028 22.2586 31.2898C22.0076 32.2018 21.1726 32.8718 20.1806 32.8718C19.1886 32.8718 18.3536 32.2018 18.1026 31.2898C18.0236 31.0028 18.2356 30.7168 18.5326 30.7168H21.8286Z" fill="#5C2F17"/>
<path d="M6.27793 15.6232C6.04193 14.1832 5.31493 9.7412 4.98293 7.7102C4.92193 7.3352 5.34893 7.0812 5.65193 7.3102L8.77893 9.6652C8.99593 9.8282 9.30793 9.7472 9.41693 9.4992L11.1299 5.6232C11.2469 5.3592 11.5889 5.2882 11.8009 5.4852L15.6929 9.0962C15.8969 9.2852 16.2249 9.2282 16.3529 8.9812L19.5879 2.7292C19.7449 2.4262 20.1789 2.4262 20.3359 2.7292L23.5709 8.9812C23.6989 9.2282 24.0269 9.2852 24.2309 9.0962L28.1229 5.4852C28.3349 5.2882 28.6769 5.3592 28.7939 5.6232L30.5069 9.4992C30.6169 9.7472 30.9289 9.8282 31.1449 9.6652L34.2719 7.3102C34.5749 7.0822 35.0019 7.3402 34.9409 7.7142L33.6399 15.6622C33.5969 15.9252 33.4189 16.1412 33.1669 16.2272C31.0599 16.9382 20.8979 19.8912 6.81293 16.2052C6.53593 16.1322 6.32393 15.9052 6.27793 15.6232Z" fill="#D69600"/>
<path d="M19.962 15.0484C20.7462 15.0484 21.382 14.3433 21.382 13.4734C21.382 12.6036 20.7462 11.8984 19.962 11.8984C19.1777 11.8984 18.542 12.6036 18.542 13.4734C18.542 14.3433 19.1777 15.0484 19.962 15.0484Z" fill="#F3F3F3"/>
</g>
<defs>
<clipPath id="clip0_1635_742">
<rect width="40" height="40" fill="white"/>
</clipPath>
</defs>
</svg>
