<svg width="54" height="25" viewBox="0 0 54 25" fill="none" xmlns="http://www.w3.org/2000/svg">
<rect width="54" height="21" rx="10.5" fill="#FF6B00"/>
<path d="M17.1523 11.0674V11.9053H13.2422V14.9131H12.2324V11.9053H8.34375V11.0674H17.1523ZM9.50391 10.1758V5.71777H16.0674V6.53418H10.5029V7.52246H15.8525V8.31738H10.5029V9.35938H16.1748V10.1758H9.50391ZM26.4499 12.9365V13.7744H17.6413V12.9365H20.0046V10.7988H18.4148V9.97168H19.8542V6.97461H18.3933V6.13672H25.6443V6.97461H24.1726V9.97168H25.612V10.7988H24.0329V12.9365H26.4499ZM20.864 9.97168H23.1736V6.97461H20.864V9.97168ZM21.0251 12.9365H23.0124V10.7988H21.0251V12.9365ZM29.85 5.71777C31.2573 5.71777 32.2455 6.49121 32.2563 7.64062C32.2455 8.61816 31.5043 9.33252 30.3871 9.50977V10.3691C31.2358 10.3208 32.0952 10.2402 32.8901 10.1221L32.9653 10.874C30.9457 11.2393 28.6791 11.2769 27.0248 11.2715L26.9174 10.4443C27.6371 10.4497 28.4804 10.4443 29.3666 10.4121V9.52051C28.2172 9.35938 27.4492 8.63428 27.4545 7.64062C27.4492 6.49121 28.4374 5.71777 29.85 5.71777ZM28.2817 14.709V12.0127H29.3022V13.8711H34.8452V14.709H28.2817ZM28.4106 7.64062C28.3998 8.32275 29.0014 8.76855 29.85 8.76855C30.704 8.76855 31.2895 8.32275 31.2895 7.64062C31.2895 6.94238 30.704 6.50195 29.85 6.50195C29.0014 6.50195 28.3998 6.94238 28.4106 7.64062ZM33.4809 12.6572V5.29883H34.5014V8.47852H35.8764V9.33789H34.5014V12.6572H33.4809ZM45.0236 12.9043V13.7637H36.215V12.9043H38.6213V11.207H37.2892V8.14551H42.9396V6.80273H37.2677V5.96484H43.9494V8.97266H38.299V10.3691H44.175V11.207H42.714V12.9043H45.0236ZM39.6095 12.9043H41.715V11.207H39.6095V12.9043Z" fill="white"/>
<path d="M27.9411 24.4118C27.5228 25.1961 26.4772 25.1961 26.0589 24.4118L24.6472 21.7647C24.2289 20.9804 24.7518 20 25.5883 20L28.4117 20C29.2482 20 29.7711 20.9804 29.3528 21.7647L27.9411 24.4118Z" fill="#FF6B00"/>
</svg>
