<svg width="40" height="44" viewBox="0 0 40 44" fill="none" xmlns="http://www.w3.org/2000/svg">
<path d="M20 1.25C10.7492 1.25 3.25 8.74923 3.25 18V31.7674C3.25 33.4147 4.58534 34.75 6.23256 34.75H20C29.2508 34.75 36.75 27.2508 36.75 18C36.75 8.74923 29.2508 1.25 20 1.25Z" stroke="url(#paint0_linear_1605_563)" stroke-width="1.5"/>
<g filter="url(#filter0_d_1605_563)">
<path d="M6 18C6 10.268 12.268 4 20 4C27.732 4 34 10.268 34 18C34 25.732 27.732 32 20 32H8C6.89543 32 6 31.1046 6 30V18Z" fill="#2E3D51" shape-rendering="crispEdges"/>
<path d="M25.5 12V22C25.5 22.1326 25.4473 22.2598 25.3536 22.3536C25.2598 22.4473 25.1326 22.5 25 22.5H16.5C16.2348 22.5 15.9804 22.6054 15.7929 22.7929C15.6054 22.9804 15.5 23.2348 15.5 23.5H24C24.1326 23.5 24.2598 23.5527 24.3536 23.6464C24.4473 23.7402 24.5 23.8674 24.5 24C24.5 24.1326 24.4473 24.2598 24.3536 24.3536C24.2598 24.4473 24.1326 24.5 24 24.5H15C14.8674 24.5 14.7402 24.4473 14.6464 24.3536C14.5527 24.2598 14.5 24.1326 14.5 24V13.5C14.5 12.9696 14.7107 12.4609 15.0858 12.0858C15.4609 11.7107 15.9696 11.5 16.5 11.5H25C25.1326 11.5 25.2598 11.5527 25.3536 11.6464C25.4473 11.7402 25.5 11.8674 25.5 12Z" fill="white"/>
</g>
<defs>
<filter id="filter0_d_1605_563" x="0" y="4" width="40" height="40" filterUnits="userSpaceOnUse" color-interpolation-filters="sRGB">
<feFlood flood-opacity="0" result="BackgroundImageFix"/>
<feColorMatrix in="SourceAlpha" type="matrix" values="0 0 0 0 0 0 0 0 0 0 0 0 0 0 0 0 0 0 127 0" result="hardAlpha"/>
<feOffset dy="6"/>
<feGaussianBlur stdDeviation="3"/>
<feComposite in2="hardAlpha" operator="out"/>
<feColorMatrix type="matrix" values="0 0 0 0 0.0666667 0 0 0 0 0.0666667 0 0 0 0 0.109804 0 0 0 0.2 0"/>
<feBlend mode="normal" in2="BackgroundImageFix" result="effect1_dropShadow_1605_563"/>
<feBlend mode="normal" in="SourceGraphic" in2="effect1_dropShadow_1605_563" result="shape"/>
</filter>
<linearGradient id="paint0_linear_1605_563" x1="6.5" y1="4" x2="30" y2="34" gradientUnits="userSpaceOnUse">
<stop stop-color="#FF6B00"/>
<stop offset="0.465" stop-color="#FFD7BA"/>
<stop offset="1" stop-color="#FF6B00"/>
</linearGradient>
</defs>
</svg>
