<svg width="40" height="40" viewBox="0 0 40 40" fill="none" xmlns="http://www.w3.org/2000/svg">
<g filter="url(#filter0_d_1605_552)">
<path d="M6 14C6 6.26801 12.268 0 20 0C27.732 0 34 6.26801 34 14C34 21.732 27.732 28 20 28H8C6.89543 28 6 27.1046 6 26V14Z" fill="#2E3D51" shape-rendering="crispEdges"/>
<path d="M25.5 8V18C25.5 18.1326 25.4473 18.2598 25.3536 18.3536C25.2598 18.4473 25.1326 18.5 25 18.5H16.5C16.2348 18.5 15.9804 18.6054 15.7929 18.7929C15.6054 18.9804 15.5 19.2348 15.5 19.5H24C24.1326 19.5 24.2598 19.5527 24.3536 19.6464C24.4473 19.7402 24.5 19.8674 24.5 20C24.5 20.1326 24.4473 20.2598 24.3536 20.3536C24.2598 20.4473 24.1326 20.5 24 20.5H15C14.8674 20.5 14.7402 20.4473 14.6464 20.3536C14.5527 20.2598 14.5 20.1326 14.5 20V9.5C14.5 8.96957 14.7107 8.46086 15.0858 8.08579C15.4609 7.71071 15.9696 7.5 16.5 7.5H25C25.1326 7.5 25.2598 7.55268 25.3536 7.64645C25.4473 7.74021 25.5 7.86739 25.5 8Z" fill="white"/>
</g>
<defs>
<filter id="filter0_d_1605_552" x="0" y="0" width="40" height="40" filterUnits="userSpaceOnUse" color-interpolation-filters="sRGB">
<feFlood flood-opacity="0" result="BackgroundImageFix"/>
<feColorMatrix in="SourceAlpha" type="matrix" values="0 0 0 0 0 0 0 0 0 0 0 0 0 0 0 0 0 0 127 0" result="hardAlpha"/>
<feOffset dy="6"/>
<feGaussianBlur stdDeviation="3"/>
<feComposite in2="hardAlpha" operator="out"/>
<feColorMatrix type="matrix" values="0 0 0 0 0.0666667 0 0 0 0 0.0666667 0 0 0 0 0.109804 0 0 0 0.2 0"/>
<feBlend mode="normal" in2="BackgroundImageFix" result="effect1_dropShadow_1605_552"/>
<feBlend mode="normal" in="SourceGraphic" in2="effect1_dropShadow_1605_552" result="shape"/>
</filter>
</defs>
</svg>
