<svg width="20" height="20" viewBox="0 0 20 20" fill="none" xmlns="http://www.w3.org/2000/svg">
<g clip-path="url(#clip0_437_1781)">
<path d="M9.3345 15.046C9.3345 13.8505 10.138 12.8535 11.231 12.5355H3.7855C3.603 12.5355 3.426 12.5145 3.2545 12.478C2.1095 12.7225 1.25 13.738 1.25 14.956C1.25 16.3565 2.385 17.4915 3.7855 17.4915H11.7795C10.429 17.4915 9.334 16.3965 9.334 15.046H9.3345Z" fill="#2EC4B6"/>
<path d="M11.5155 13.4506C10.7325 13.6301 10.1755 14.4026 10.342 15.2696C10.4835 16.0061 11.171 16.5131 11.921 16.5131H18.75V13.4116H11.8635C11.744 13.4116 11.6275 13.4251 11.5155 13.4506Z" fill="#E5E8EB"/>
<path d="M11.7795 12.5355H11.231C10.138 12.853 9.33447 13.8505 9.33447 15.046C9.33447 16.3965 10.4295 17.4915 11.78 17.4915H17.772C18.312 17.4915 18.75 17.0535 18.75 16.5135H11.921C11.171 16.5135 10.4835 16.0065 10.342 15.27C10.1755 14.403 10.7325 13.6305 11.5155 13.451C11.6275 13.4255 11.744 13.412 11.8635 13.412H18.75C18.75 12.9795 18.4715 12.616 18.0855 12.4805C17.9865 12.514 17.8825 12.5365 17.772 12.5365H11.78L11.7795 12.5355Z" fill="#00A596"/>
<path d="M11.231 12.5355H11.7795C10.429 12.5355 9.334 11.4405 9.334 10.09C9.334 8.89447 10.1375 7.89747 11.2305 7.57947H3.7855C3.603 7.57947 3.426 7.55847 3.2545 7.52197C2.1095 7.76647 1.25 8.78197 1.25 9.99997C1.25 11.218 2.1095 12.2335 3.2545 12.478C3.426 12.5145 3.603 12.5355 3.7855 12.5355H11.231Z" fill="#540D6E"/>
<path d="M11.5155 8.49505C10.7325 8.67455 10.1755 9.44655 10.342 10.3141C10.4835 11.0506 11.171 11.5576 11.921 11.5576H18.75V8.45605H11.8635C11.744 8.45605 11.6275 8.46955 11.5155 8.49505Z" fill="#E5E8EB"/>
<path d="M11.7795 7.58015H11.231C10.138 7.89765 9.33447 8.89515 9.33447 10.0906C9.33447 11.4411 10.4295 12.5361 11.78 12.5361H17.772C17.8825 12.5361 17.9865 12.5136 18.0855 12.4801C18.471 12.3491 18.75 11.9881 18.75 11.5581H11.921C11.171 11.5581 10.4835 11.0511 10.342 10.3146C10.1755 9.44715 10.7325 8.67515 11.5155 8.49565C11.6275 8.47015 11.744 8.45665 11.8635 8.45665H18.75C18.75 8.02415 18.4715 7.66015 18.0855 7.52515C17.9865 7.55865 17.8825 7.58115 17.772 7.58115H11.78L11.7795 7.58015Z" fill="#7E00AB"/>
<path d="M11.231 7.58003H11.7795C10.429 7.58003 9.334 6.48503 9.334 5.13453C9.334 3.74603 10.415 2.62153 11.7795 2.52703V2.50903H3.7855C2.385 2.50903 1.25 3.64403 1.25 5.04453C1.25 6.26253 2.1095 7.27803 3.2545 7.52253C3.426 7.55903 3.603 7.58003 3.7855 7.58003H11.231Z" fill="#FF9900"/>
<path d="M11.5155 3.539C11.068 3.6415 10.6945 3.9375 10.4875 4.3345C10.476 4.3565 10.4705 4.382 10.4605 4.4045C10.377 4.5855 10.3215 4.783 10.314 4.9935C10.3135 5.012 10.3185 5.032 10.3185 5.0505C10.3185 5.1515 10.3225 5.2535 10.3425 5.358C10.484 6.0945 11.1715 6.6015 11.9215 6.6015H18.7505V3.5H11.864C11.7445 3.5 11.6275 3.5135 11.5155 3.539Z" fill="#E5E8EB"/>
<path d="M18.75 6.60202H11.921C11.171 6.60202 10.4835 6.09502 10.342 5.35852C10.322 5.25402 10.318 5.15202 10.318 5.05102C10.318 5.03252 10.313 5.01252 10.3135 4.99402C10.321 4.78302 10.3765 4.58602 10.46 4.40502C10.4705 4.38252 10.4755 4.35702 10.487 4.33502C10.694 3.93802 11.0675 3.64202 11.515 3.53952C11.627 3.51402 11.7435 3.50052 11.863 3.50052H18.7495C18.7495 2.95302 18.306 2.50952 17.7585 2.50952H11.96C11.898 2.50952 11.8405 2.52352 11.7795 2.52752C10.415 2.62202 9.33398 3.74652 9.33398 5.13502C9.33398 6.48552 10.429 7.58052 11.7795 7.58052H17.7715C17.882 7.58052 17.986 7.55802 18.085 7.52452C18.4705 7.39352 18.7495 7.03252 18.7495 6.60252L18.75 6.60202Z" fill="#DE8500"/>
</g>
<defs>
<clipPath id="clip0_437_1781">
<rect width="20" height="20" fill="white"/>
</clipPath>
</defs>
</svg>
