<svg width="149" height="40" viewBox="0 0 149 40" fill="none" xmlns="http://www.w3.org/2000/svg">
<rect x="0.5" width="40" height="40" rx="4" fill="#FF9900"/>
<path d="M11.9507 7.23651C12.16 6.46641 12.888 6.001 13.6533 6.001C14.1253 6.001 14.5547 6.17199 14.8813 6.45098C15.2415 6.15967 15.6966 6 16.1667 6C16.6368 6 17.0918 6.15967 17.452 6.45098C17.79 6.1604 18.2272 6.00019 18.68 6.001C19.4453 6.001 20.1733 6.46641 20.3827 7.23651C20.5827 7.97189 20.8333 9.15726 20.8333 10.5008C20.8333 11.251 20.6387 11.9893 20.2673 12.6486C19.8959 13.3078 19.3594 13.8671 18.7067 14.2754C18.3453 14.503 18.1667 14.7961 18.1667 15.0468V15.5559C18.1667 15.585 18.1684 15.6133 18.172 15.6408C18.2173 15.9596 18.3813 17.1437 18.5347 18.3715C18.6853 19.5761 18.8333 20.89 18.8333 21.4287C18.8333 22.1107 18.5524 22.7647 18.0523 23.2469C17.5522 23.7291 16.8739 24 16.1667 24C15.4594 24 14.7811 23.7291 14.281 23.2469C13.781 22.7647 13.5 22.1107 13.5 21.4287C13.5 20.8887 13.648 19.5774 13.7987 18.3715C13.952 17.1437 14.116 15.9596 14.1613 15.6408L14.1667 15.5559V15.0468C14.1667 14.7961 13.988 14.503 13.6267 14.2754C12.9739 13.8671 12.4375 13.3078 12.066 12.6486C11.6946 11.9893 11.5 11.251 11.5 10.5008C11.5 9.15726 11.7507 7.97189 11.9507 7.23651ZM18.1667 11.1436C18.1667 11.3141 18.0964 11.4776 17.9714 11.5981C17.8464 11.7187 17.6768 11.7864 17.5 11.7864C17.3232 11.7864 17.1536 11.7187 17.0286 11.5981C16.9036 11.4776 16.8333 11.3141 16.8333 11.1436V7.92947C16.8333 7.75898 16.7631 7.59548 16.6381 7.47493C16.513 7.35437 16.3435 7.28665 16.1667 7.28665C15.9899 7.28665 15.8203 7.35437 15.6953 7.47493C15.5702 7.59548 15.5 7.75898 15.5 7.92947V11.1436C15.5 11.3141 15.4298 11.4776 15.3047 11.5981C15.1797 11.7187 15.0101 11.7864 14.8333 11.7864C14.6565 11.7864 14.487 11.7187 14.3619 11.5981C14.2369 11.4776 14.1667 11.3141 14.1667 11.1436V7.78162C14.1667 7.65034 14.1126 7.52445 14.0163 7.43162C13.92 7.3388 13.7895 7.28665 13.6533 7.28665C13.432 7.28665 13.28 7.41393 13.24 7.56306C12.9772 8.52198 12.8406 9.50895 12.8333 10.5008C12.8333 11.0369 12.9723 11.5646 13.2378 12.0357C13.5033 12.5068 13.8868 12.9064 14.3533 13.198C14.9387 13.5644 15.5 14.2085 15.5 15.0468V15.5559C15.5 15.6416 15.4942 15.7273 15.4827 15.813C15.4373 16.1293 15.2747 17.3057 15.1227 18.5257C14.968 19.7664 14.8333 20.9865 14.8333 21.4287C14.8333 21.7697 14.9738 22.0967 15.2239 22.3378C15.4739 22.5789 15.813 22.7144 16.1667 22.7144C16.5203 22.7144 16.8594 22.5789 17.1095 22.3378C17.3595 22.0967 17.5 21.7697 17.5 21.4287C17.5 20.9865 17.3667 19.7664 17.2107 18.5244C17.0587 17.3057 16.896 16.1293 16.8507 15.8117C16.8405 15.7272 16.8347 15.6423 16.8333 15.5572V15.0481C16.8333 14.2098 17.3947 13.5657 17.98 13.1993C18.4468 12.9075 18.8304 12.5077 19.0959 12.0364C19.3614 11.565 19.5003 11.0371 19.5 10.5008C19.5 9.30253 19.276 8.23288 19.0933 7.56306C19.0533 7.41521 18.9 7.28665 18.68 7.28665C18.5439 7.28665 18.4133 7.3388 18.317 7.43162C18.2207 7.52445 18.1667 7.65034 18.1667 7.78162V11.1436ZM22.1667 11.7864C22.1667 10.252 22.7988 8.78048 23.924 7.69551C25.0492 6.61053 26.5754 6.001 28.1667 6.001C28.3435 6.001 28.513 6.06873 28.6381 6.18928C28.7631 6.30983 28.8333 6.47334 28.8333 6.64383V14.323L28.8587 14.5505C28.9647 15.51 29.0665 16.47 29.164 17.4304C29.328 19.0451 29.5 20.8553 29.5 21.4287C29.5 22.1107 29.219 22.7647 28.719 23.2469C28.2189 23.7291 27.5406 24 26.8333 24C26.1261 24 25.4478 23.7291 24.9477 23.2469C24.4476 22.7647 24.1667 22.1107 24.1667 21.4287C24.1667 20.8553 24.3387 19.0451 24.5027 17.4304C24.5867 16.6114 24.6707 15.8272 24.7333 15.2461L24.76 15.0005H23.5C23.1464 15.0005 22.8072 14.8651 22.5572 14.6239C22.3071 14.3828 22.1667 14.0558 22.1667 13.7149V11.7864ZM26.1627 14.4258L26.1347 14.6855C26.0304 15.6422 25.9291 16.5991 25.8307 17.5564C25.6613 19.211 25.5 20.9376 25.5 21.4287C25.5 21.7697 25.6405 22.0967 25.8905 22.3378C26.1406 22.5789 26.4797 22.7144 26.8333 22.7144C27.187 22.7144 27.5261 22.5789 27.7761 22.3378C28.0262 22.0967 28.1667 21.7697 28.1667 21.4287C28.1667 20.9363 28.0053 19.211 27.836 17.5564C27.7382 16.5991 27.6369 15.6421 27.532 14.6855L27.504 14.4271L27.5 14.3577V7.33164C26.3891 7.48625 25.3733 8.02172 24.6386 8.8399C23.9039 9.65808 23.4997 10.7042 23.5 11.7864V13.7149H25.5C25.5935 13.7149 25.6859 13.7339 25.7713 13.7706C25.8567 13.8073 25.9331 13.8609 25.9956 13.928C26.0581 13.995 26.1053 14.074 26.134 14.1598C26.1628 14.2455 26.1726 14.3362 26.1627 14.4258Z" fill="white"/>
<path d="M11.0546 25.9726C11.2402 25.609 11.7598 25.609 11.9454 25.9726L12.622 27.2986C12.84 27.7256 13.249 28.0228 13.7225 28.0981L15.1926 28.3319C15.5958 28.396 15.7564 28.8902 15.4679 29.179L14.4159 30.2323C14.0771 30.5716 13.9209 31.0524 13.9956 31.526L14.2275 32.9964C14.2911 33.3997 13.8708 33.7051 13.5069 33.52L12.1801 32.845C11.7528 32.6276 11.2472 32.6276 10.8199 32.845L9.49308 33.52C9.12922 33.7051 8.70887 33.3997 8.77248 32.9964L9.0044 31.526C9.07911 31.0524 8.92289 30.5716 8.58406 30.2323L7.53213 29.179C7.24365 28.8902 7.40421 28.396 7.80738 28.3319L9.27751 28.0981C9.75103 28.0228 10.16 27.7256 10.378 27.2986L11.0546 25.9726Z" stroke="white"/>
<path d="M20.0546 25.9726C20.2402 25.609 20.7598 25.609 20.9454 25.9726L21.622 27.2986C21.84 27.7256 22.249 28.0228 22.7225 28.0981L24.1926 28.3319C24.5958 28.396 24.7564 28.8902 24.4679 29.179L23.4159 30.2323C23.0771 30.5716 22.9209 31.0524 22.9956 31.526L23.2275 32.9964C23.2911 33.3997 22.8708 33.7051 22.5069 33.52L21.1801 32.845C20.7528 32.6276 20.2472 32.6276 19.8199 32.845L18.4931 33.52C18.1292 33.7051 17.7089 33.3997 17.7725 32.9964L18.0044 31.526C18.0791 31.0524 17.9229 30.5716 17.5841 30.2323L16.5321 29.179C16.2436 28.8902 16.4042 28.396 16.8074 28.3319L18.2775 28.0981C18.751 28.0228 19.16 27.7256 19.378 27.2986L20.0546 25.9726Z" stroke="white"/>
<path d="M29.0546 25.9726C29.2402 25.609 29.7598 25.609 29.9454 25.9726L30.622 27.2986C30.84 27.7256 31.249 28.0228 31.7225 28.0981L33.1926 28.3319C33.5958 28.396 33.7564 28.8902 33.4679 29.179L32.4159 30.2323C32.0771 30.5716 31.9209 31.0524 31.9956 31.526L32.2275 32.9964C32.2911 33.3997 31.8708 33.7051 31.5069 33.52L30.1801 32.845C29.7528 32.6276 29.2472 32.6276 28.8199 32.845L27.4931 33.52C27.1292 33.7051 26.7089 33.3997 26.7725 32.9964L27.0044 31.526C27.0791 31.0524 26.9229 30.5716 26.5841 30.2323L25.5321 29.179C25.2436 28.8902 25.4042 28.396 25.8074 28.3319L27.2775 28.0981C27.751 28.0228 28.16 27.7256 28.378 27.2986L29.0546 25.9726Z" stroke="white"/>
<path d="M54.8438 23.1753L57.0912 15.9175H58.617L60.8644 23.1753L63.4005 15.9175H65.2356L61.7098 26H60.0191L57.916 19.0928H57.7923L55.6686 26H53.9778L50.4521 15.9175H52.2871L54.8438 23.1753ZM68.2486 23.7113L67.2383 26H65.4238L69.8774 15.9175H71.6919L76.1249 26H74.3104L73.3001 23.7113H68.2486ZM72.6197 22.1237L70.7847 17.9794L68.9496 22.1237H72.6197ZM84.5187 21.0928H86.2094V24.5361C85.261 25.5945 83.9001 26.1237 82.127 26.1237C80.6287 26.1237 79.3778 25.6289 78.3744 24.6392C77.3709 23.6495 76.8692 22.4124 76.8692 20.9278C76.8692 19.4433 77.3778 18.1993 78.395 17.1959C79.4259 16.1787 80.6699 15.6701 82.127 15.6701C83.584 15.6701 84.7936 16.0893 85.7558 16.9278L84.8486 18.2268C84.1476 17.6357 83.2885 17.3402 82.2713 17.3402C81.2404 17.3402 80.3744 17.677 79.6733 18.3505C78.9861 19.0103 78.6424 19.8694 78.6424 20.9278C78.6424 21.9863 78.9723 22.8454 79.6321 23.5052C80.3056 24.1512 81.1373 24.4742 82.127 24.4742C83.0892 24.4742 83.8864 24.268 84.5187 23.8557V21.0928ZM92.6108 24.4948C93.3944 24.4948 94.0129 24.2268 94.4665 23.6907C94.9339 23.1546 95.1675 22.4261 95.1675 21.5052V15.9175H96.8789V21.567C96.8789 22.9966 96.4871 24.11 95.7036 24.9072C94.9201 25.7045 93.8892 26.1031 92.6108 26.1031C91.3325 26.1031 90.3016 25.7045 89.5181 24.9072C88.7346 24.11 88.3428 22.9966 88.3428 21.567V15.9175H90.0335V21.5052C90.0335 22.4399 90.2672 23.1684 90.7346 23.6907C91.1882 24.2268 91.8136 24.4948 92.6108 24.4948ZM103.525 26V15.9175H107.443C108.858 15.9175 109.821 16.2199 110.329 16.8247C110.783 17.3333 111.01 17.9175 111.01 18.5773C111.01 19.3746 110.762 19.9656 110.267 20.3505C110.102 20.4742 109.855 20.6117 109.525 20.7629C110.157 20.9003 110.652 21.1821 111.01 21.6082C111.381 22.0344 111.566 22.5636 111.566 23.1959C111.566 23.9931 111.278 24.6598 110.7 25.1959C110.137 25.732 109.216 26 107.937 26H103.525ZM105.236 20.1031H107.381C108.618 20.1031 109.236 19.6838 109.236 18.8454C109.236 18.3643 109.085 18.0206 108.783 17.8144C108.494 17.5945 108.034 17.4845 107.401 17.4845H105.236V20.1031ZM105.236 24.433H107.896C108.556 24.433 109.044 24.3299 109.36 24.1237C109.676 23.9038 109.834 23.5326 109.834 23.0103C109.834 22.1168 109.12 21.6701 107.69 21.6701H105.236V24.433ZM118.361 17.2165C117.357 17.2165 116.512 17.5739 115.825 18.2887C115.137 19.0034 114.794 19.8694 114.794 20.8866C114.794 21.9038 115.137 22.7698 115.825 23.4845C116.512 24.1856 117.357 24.5361 118.361 24.5361C119.364 24.5361 120.209 24.1856 120.897 23.4845C121.584 22.7698 121.928 21.9038 121.928 20.8866C121.928 19.8694 121.584 19.0034 120.897 18.2887C120.209 17.5739 119.364 17.2165 118.361 17.2165ZM118.361 26.1031C116.849 26.1031 115.584 25.6082 114.567 24.6186C113.55 23.6151 113.041 22.3711 113.041 20.8866C113.041 19.4021 113.55 18.1649 114.567 17.1753C115.584 16.1718 116.849 15.6701 118.361 15.6701C119.873 15.6701 121.137 16.1718 122.154 17.1753C123.172 18.1649 123.68 19.4021 123.68 20.8866C123.68 22.3711 123.165 23.6082 122.134 24.5979C121.103 25.6014 119.845 26.1031 118.361 26.1031ZM130.49 17.2165C129.486 17.2165 128.641 17.5739 127.954 18.2887C127.266 19.0034 126.923 19.8694 126.923 20.8866C126.923 21.9038 127.266 22.7698 127.954 23.4845C128.641 24.1856 129.486 24.5361 130.49 24.5361C131.493 24.5361 132.338 24.1856 133.026 23.4845C133.713 22.7698 134.057 21.9038 134.057 20.8866C134.057 19.8694 133.713 19.0034 133.026 18.2887C132.338 17.5739 131.493 17.2165 130.49 17.2165ZM130.49 26.1031C128.978 26.1031 127.713 25.6082 126.696 24.6186C125.679 23.6151 125.17 22.3711 125.17 20.8866C125.17 19.4021 125.679 18.1649 126.696 17.1753C127.713 16.1718 128.978 15.6701 130.49 15.6701C132.002 15.6701 133.266 16.1718 134.283 17.1753C135.301 18.1649 135.809 19.4021 135.809 20.8866C135.809 22.3711 135.294 23.6082 134.263 24.5979C133.232 25.6014 131.974 26.1031 130.49 26.1031ZM137.959 15.9175H139.67V20.8247L144.289 15.9175H146.433L142.392 20.3299L146.495 26H144.474L141.134 21.5876L139.67 23.1753V26H137.959V15.9175Z" fill="#F4B02B"/>
</svg>
