<svg width="24" height="24" viewBox="0 0 22 22" fill="none" xmlns="http://www.w3.org/2000/svg">
<path d="M21.8388 20.1229L16.637 14.9313C16.5081 14.8454 16.3791 14.7596 16.2501 14.7596H15.6913C17.0239 13.215 17.8837 11.1555 17.8837 8.92443C17.8837 4.03315 13.8427 0 8.94187 0C3.99805 0 0 4.03315 0 8.92443C0 13.8586 3.99805 17.8489 8.94187 17.8489C11.1773 17.8489 13.1979 17.0336 14.7885 15.7036V16.2613C14.7885 16.3901 14.8315 16.5188 14.9174 16.6475L20.1192 21.8391C20.3341 22.0536 20.6781 22.0536 20.85 21.8391L21.8388 20.8523C22.0537 20.6806 22.0537 20.3374 21.8388 20.1229ZM8.94187 15.7894C5.11578 15.7894 2.06351 12.7431 2.06351 8.92443C2.06351 5.14871 5.11578 2.05948 8.94187 2.05948C12.725 2.05948 15.8202 5.14871 15.8202 8.92443C15.8202 12.7431 12.725 15.7894 8.94187 15.7894Z" fill="#4E5968"/>
</svg>
