<svg width="16" height="16" viewBox="0 0 16 16" fill="none" xmlns="http://www.w3.org/2000/svg">
<path d="M13.5306 6.53122L8.5306 11.5312C8.46092 11.6011 8.37813 11.6566 8.28696 11.6945C8.1958 11.7323 8.09806 11.7518 7.99935 11.7518C7.90064 11.7518 7.8029 11.7323 7.71173 11.6945C7.62057 11.6566 7.53778 11.6011 7.4681 11.5312L2.4681 6.53122C2.3272 6.39033 2.24805 6.19923 2.24805 5.99997C2.24805 5.80072 2.3272 5.60962 2.4681 5.46872C2.60899 5.32783 2.80009 5.24867 2.99935 5.24867C3.19861 5.24867 3.3897 5.32783 3.5306 5.46872L7.99997 9.9381L12.4693 5.4681C12.6102 5.3272 12.8013 5.24805 13.0006 5.24805C13.1999 5.24805 13.391 5.3272 13.5318 5.4681C13.6727 5.60899 13.7519 5.80009 13.7519 5.99935C13.7519 6.19861 13.6727 6.3897 13.5318 6.5306L13.5306 6.53122Z" fill="#8F8E9E"/>
</svg>
