<svg width="20" height="20" viewBox="0 0 20 20" fill="none" xmlns="http://www.w3.org/2000/svg">
<path d="M16.0673 15.1832C16.1254 15.2412 16.1714 15.3102 16.2028 15.386C16.2343 15.4619 16.2505 15.5432 16.2505 15.6253C16.2505 15.7075 16.2343 15.7888 16.2028 15.8647C16.1714 15.9405 16.1254 16.0095 16.0673 16.0675C16.0092 16.1256 15.9403 16.1717 15.8644 16.2031C15.7885 16.2345 15.7072 16.2507 15.6251 16.2507C15.543 16.2507 15.4617 16.2345 15.3858 16.2031C15.3099 16.1717 15.241 16.1256 15.1829 16.0675L10.0001 10.8839L4.81729 16.0675C4.70002 16.1848 4.54096 16.2507 4.3751 16.2507C4.20925 16.2507 4.05019 16.1848 3.93292 16.0675C3.81564 15.9503 3.74976 15.7912 3.74976 15.6253C3.74976 15.4595 3.81564 15.3004 3.93292 15.1832L9.11651 10.0003L3.93292 4.81753C3.81564 4.70026 3.74976 4.5412 3.74976 4.37535C3.74976 4.2095 3.81564 4.05044 3.93292 3.93316C4.05019 3.81588 4.20925 3.75 4.3751 3.75C4.54096 3.75 4.70002 3.81588 4.81729 3.93316L10.0001 9.11675L15.1829 3.93316C15.3002 3.81588 15.4593 3.75 15.6251 3.75C15.791 3.75 15.95 3.81588 16.0673 3.93316C16.1846 4.05044 16.2505 4.2095 16.2505 4.37535C16.2505 4.5412 16.1846 4.70026 16.0673 4.81753L10.8837 10.0003L16.0673 15.1832Z" fill="#2E2E37"/>
</svg>
