<svg width="40" height="40" viewBox="0 0 40 40" fill="none" xmlns="http://www.w3.org/2000/svg">
<rect width="40" height="40" rx="4" fill="#FF9900"/>
<path d="M11.4507 7.23651C11.66 6.46641 12.388 6.001 13.1533 6.001C13.6253 6.001 14.0547 6.17199 14.3813 6.45098C14.7415 6.15967 15.1966 6 15.6667 6C16.1368 6 16.5918 6.15967 16.952 6.45098C17.29 6.1604 17.7272 6.00019 18.18 6.001C18.9453 6.001 19.6733 6.46641 19.8827 7.23651C20.0827 7.97189 20.3333 9.15726 20.3333 10.5008C20.3333 11.251 20.1387 11.9893 19.7673 12.6486C19.3959 13.3078 18.8594 13.8671 18.2067 14.2754C17.8453 14.503 17.6667 14.7961 17.6667 15.0468V15.5559C17.6667 15.585 17.6684 15.6133 17.672 15.6408C17.7173 15.9596 17.8813 17.1437 18.0347 18.3715C18.1853 19.5761 18.3333 20.89 18.3333 21.4287C18.3333 22.1107 18.0524 22.7647 17.5523 23.2469C17.0522 23.7291 16.3739 24 15.6667 24C14.9594 24 14.2811 23.7291 13.781 23.2469C13.281 22.7647 13 22.1107 13 21.4287C13 20.8887 13.148 19.5774 13.2987 18.3715C13.452 17.1437 13.616 15.9596 13.6613 15.6408L13.6667 15.5559V15.0468C13.6667 14.7961 13.488 14.503 13.1267 14.2754C12.4739 13.8671 11.9375 13.3078 11.566 12.6486C11.1946 11.9893 11 11.251 11 10.5008C11 9.15726 11.2507 7.97189 11.4507 7.23651ZM17.6667 11.1436C17.6667 11.3141 17.5964 11.4776 17.4714 11.5981C17.3464 11.7187 17.1768 11.7864 17 11.7864C16.8232 11.7864 16.6536 11.7187 16.5286 11.5981C16.4036 11.4776 16.3333 11.3141 16.3333 11.1436V7.92947C16.3333 7.75898 16.2631 7.59548 16.1381 7.47493C16.013 7.35437 15.8435 7.28665 15.6667 7.28665C15.4899 7.28665 15.3203 7.35437 15.1953 7.47493C15.0702 7.59548 15 7.75898 15 7.92947V11.1436C15 11.3141 14.9298 11.4776 14.8047 11.5981C14.6797 11.7187 14.5101 11.7864 14.3333 11.7864C14.1565 11.7864 13.987 11.7187 13.8619 11.5981C13.7369 11.4776 13.6667 11.3141 13.6667 11.1436V7.78162C13.6667 7.65034 13.6126 7.52445 13.5163 7.43162C13.42 7.3388 13.2895 7.28665 13.1533 7.28665C12.932 7.28665 12.78 7.41393 12.74 7.56306C12.4772 8.52198 12.3406 9.50895 12.3333 10.5008C12.3333 11.0369 12.4723 11.5646 12.7378 12.0357C13.0033 12.5068 13.3868 12.9064 13.8533 13.198C14.4387 13.5644 15 14.2085 15 15.0468V15.5559C15 15.6416 14.9942 15.7273 14.9827 15.813C14.9373 16.1293 14.7747 17.3057 14.6227 18.5257C14.468 19.7664 14.3333 20.9865 14.3333 21.4287C14.3333 21.7697 14.4738 22.0967 14.7239 22.3378C14.9739 22.5789 15.313 22.7144 15.6667 22.7144C16.0203 22.7144 16.3594 22.5789 16.6095 22.3378C16.8595 22.0967 17 21.7697 17 21.4287C17 20.9865 16.8667 19.7664 16.7107 18.5244C16.5587 17.3057 16.396 16.1293 16.3507 15.8117C16.3405 15.7272 16.3347 15.6423 16.3333 15.5572V15.0481C16.3333 14.2098 16.8947 13.5657 17.48 13.1993C17.9468 12.9075 18.3304 12.5077 18.5959 12.0364C18.8614 11.565 19.0003 11.0371 19 10.5008C19 9.30253 18.776 8.23288 18.5933 7.56306C18.5533 7.41521 18.4 7.28665 18.18 7.28665C18.0439 7.28665 17.9133 7.3388 17.817 7.43162C17.7207 7.52445 17.6667 7.65034 17.6667 7.78162V11.1436ZM21.6667 11.7864C21.6667 10.252 22.2988 8.78048 23.424 7.69551C24.5492 6.61053 26.0754 6.001 27.6667 6.001C27.8435 6.001 28.013 6.06873 28.1381 6.18928C28.2631 6.30983 28.3333 6.47334 28.3333 6.64383V14.323L28.3587 14.5505C28.4647 15.51 28.5665 16.47 28.664 17.4304C28.828 19.0451 29 20.8553 29 21.4287C29 22.1107 28.719 22.7647 28.219 23.2469C27.7189 23.7291 27.0406 24 26.3333 24C25.6261 24 24.9478 23.7291 24.4477 23.2469C23.9476 22.7647 23.6667 22.1107 23.6667 21.4287C23.6667 20.8553 23.8387 19.0451 24.0027 17.4304C24.0867 16.6114 24.1707 15.8272 24.2333 15.2461L24.26 15.0005H23C22.6464 15.0005 22.3072 14.8651 22.0572 14.6239C21.8071 14.3828 21.6667 14.0558 21.6667 13.7149V11.7864ZM25.6627 14.4258L25.6347 14.6855C25.5304 15.6422 25.4291 16.5991 25.3307 17.5564C25.1613 19.211 25 20.9376 25 21.4287C25 21.7697 25.1405 22.0967 25.3905 22.3378C25.6406 22.5789 25.9797 22.7144 26.3333 22.7144C26.687 22.7144 27.0261 22.5789 27.2761 22.3378C27.5262 22.0967 27.6667 21.7697 27.6667 21.4287C27.6667 20.9363 27.5053 19.211 27.336 17.5564C27.2382 16.5991 27.1369 15.6421 27.032 14.6855L27.004 14.4271L27 14.3577V7.33164C25.8891 7.48625 24.8733 8.02172 24.1386 8.8399C23.4039 9.65808 22.9997 10.7042 23 11.7864V13.7149H25C25.0935 13.7149 25.1859 13.7339 25.2713 13.7706C25.3567 13.8073 25.4331 13.8609 25.4956 13.928C25.5581 13.995 25.6053 14.074 25.634 14.1598C25.6628 14.2455 25.6726 14.3362 25.6627 14.4258Z" fill="white"/>
<path d="M10.5546 25.9726C10.7402 25.609 11.2598 25.609 11.4454 25.9726L12.122 27.2986C12.34 27.7256 12.749 28.0228 13.2225 28.0981L14.6926 28.3319C15.0958 28.396 15.2564 28.8902 14.9679 29.179L13.9159 30.2323C13.5771 30.5716 13.4209 31.0524 13.4956 31.526L13.7275 32.9964C13.7911 33.3997 13.3708 33.7051 13.0069 33.52L11.6801 32.845C11.2528 32.6276 10.7472 32.6276 10.3199 32.845L8.99308 33.52C8.62922 33.7051 8.20887 33.3997 8.27248 32.9964L8.5044 31.526C8.57911 31.0524 8.42289 30.5716 8.08406 30.2323L7.03213 29.179C6.74365 28.8902 6.90421 28.396 7.30738 28.3319L8.77751 28.0981C9.25103 28.0228 9.66003 27.7256 9.87798 27.2986L10.5546 25.9726Z" stroke="white"/>
<path d="M19.5546 25.9726C19.7402 25.609 20.2598 25.609 20.4454 25.9726L21.122 27.2986C21.34 27.7256 21.749 28.0228 22.2225 28.0981L23.6926 28.3319C24.0958 28.396 24.2564 28.8902 23.9679 29.179L22.9159 30.2323C22.5771 30.5716 22.4209 31.0524 22.4956 31.526L22.7275 32.9964C22.7911 33.3997 22.3708 33.7051 22.0069 33.52L20.6801 32.845C20.2528 32.6276 19.7472 32.6276 19.3199 32.845L17.9931 33.52C17.6292 33.7051 17.2089 33.3997 17.2725 32.9964L17.5044 31.526C17.5791 31.0524 17.4229 30.5716 17.0841 30.2323L16.0321 29.179C15.7436 28.8902 15.9042 28.396 16.3074 28.3319L17.7775 28.0981C18.251 28.0228 18.66 27.7256 18.878 27.2986L19.5546 25.9726Z" stroke="white"/>
<path d="M28.5546 25.9726C28.7402 25.609 29.2598 25.609 29.4454 25.9726L30.122 27.2986C30.34 27.7256 30.749 28.0228 31.2225 28.0981L32.6926 28.3319C33.0958 28.396 33.2564 28.8902 32.9679 29.179L31.9159 30.2323C31.5771 30.5716 31.4209 31.0524 31.4956 31.526L31.7275 32.9964C31.7911 33.3997 31.3708 33.7051 31.0069 33.52L29.6801 32.845C29.2528 32.6276 28.7472 32.6276 28.3199 32.845L26.9931 33.52C26.6292 33.7051 26.2089 33.3997 26.2725 32.9964L26.5044 31.526C26.5791 31.0524 26.4229 30.5716 26.0841 30.2323L25.0321 29.179C24.7436 28.8902 24.9042 28.396 25.3074 28.3319L26.7775 28.0981C27.251 28.0228 27.66 27.7256 27.878 27.2986L28.5546 25.9726Z" stroke="white"/>
</svg>
