<svg width="24" height="24" viewBox="0 0 24 24" fill="none" xmlns="http://www.w3.org/2000/svg">
<path d="M20.3299 3.67008C20.1407 3.48225 19.9034 3.3502 19.6441 3.28845C19.3847 3.22671 19.1134 3.23765 18.8599 3.32008L4.22988 8.20008C3.95855 8.28606 3.71879 8.45051 3.54087 8.67267C3.36295 8.89484 3.25486 9.16474 3.23025 9.4483C3.20564 9.73186 3.26561 10.0164 3.40259 10.2658C3.53957 10.5153 3.74742 10.7186 3.99988 10.8501L10.0699 13.8501L13.0699 19.9401C13.1905 20.1785 13.375 20.3786 13.6028 20.5181C13.8306 20.6576 14.0927 20.731 14.3599 20.7301H14.4599C14.746 20.709 15.0191 20.6024 15.2438 20.424C15.4685 20.2457 15.6344 20.0039 15.7199 19.7301L20.6699 5.14008C20.7583 4.88801 20.7732 4.61602 20.713 4.35578C20.6529 4.09553 20.52 3.85774 20.3299 3.67008ZM4.84988 9.58008L17.6199 5.32008L10.5299 12.4101L4.84988 9.58008ZM14.4299 19.1501L11.5899 13.4701L18.6799 6.38008L14.4299 19.1501Z" fill="#FFFDFB"/>
</svg>
