<svg width="85" height="85" viewBox="0 0 85 85" fill="none" xmlns="http://www.w3.org/2000/svg">
<path d="M74.2608 0H10.7388C5.21592 0 0.73877 4.47714 0.73877 9.99999V74.9606C0.73877 80.4835 5.21593 84.9606 10.7388 84.9606H74.2608C79.7836 84.9606 84.2608 80.4835 84.2608 74.9606V10C84.2608 4.47715 79.7836 0 74.2608 0Z" fill="#FF6B00"/>
<path d="M25.9304 53.475L28.7372 59.2694C29.0197 59.8527 29.5674 60.2629 30.2066 60.37L36.3865 61.4055L31.9021 66.1361C31.4787 66.5827 31.2845 67.1995 31.3756 67.8081L32.3561 74.357L26.8752 71.4195C26.2851 71.1032 25.5758 71.1032 24.9856 71.4195L19.5048 74.357L20.4852 67.8081C20.5763 67.1995 20.3822 66.5827 19.9587 66.1361L15.4744 61.4055L21.6542 60.37C22.2935 60.2629 22.8411 59.8527 23.1237 59.2694L25.9304 53.475Z" stroke="white" stroke-width="2"/>
<path d="M59.6585 53.475L62.4652 59.2694C62.7477 59.8527 63.2954 60.2629 63.9346 60.37L70.1145 61.4055L65.6301 66.1361C65.2067 66.5827 65.0125 67.1995 65.1037 67.8081L66.0841 74.357L60.6032 71.4195C60.0131 71.1032 59.3038 71.1032 58.7137 71.4195L53.2328 74.357L54.2133 67.8081C54.3044 67.1995 54.1102 66.5827 53.6868 66.1361L49.2024 61.4055L55.3823 60.37C56.0215 60.2629 56.5692 59.8527 56.8517 59.2694L59.6585 53.475Z" stroke="white" stroke-width="2"/>
<path d="M42.7947 53.475L45.6014 59.2694C45.884 59.8527 46.4317 60.2629 47.0709 60.37L53.2507 61.4055L48.7664 66.1361C48.3429 66.5827 48.1488 67.1995 48.2399 67.8081L49.2203 74.357L43.7395 71.4195C43.1493 71.1032 42.44 71.1032 41.8499 71.4195L36.3691 74.357L37.3495 67.8081C37.4406 67.1995 37.2464 66.5827 36.823 66.1361L32.3386 61.4055L38.5185 60.37C39.1577 60.2629 39.7054 59.8527 39.9879 59.2694L42.7947 53.475Z" stroke="white" stroke-width="2"/>
<g clip-path="url(#clip0_1553_557)">
<path d="M26.7038 13.1893C27.079 11.3499 28.3839 10.2382 29.7557 10.2382C30.6018 10.2382 31.3713 10.6467 31.9569 11.313C32.6025 10.6172 33.4181 10.2358 34.2608 10.2358C35.1034 10.2358 35.9191 10.6172 36.5647 11.313C37.1705 10.619 37.9542 10.2363 38.7658 10.2382C40.1376 10.2382 41.4425 11.3499 41.8178 13.1893C42.1762 14.9459 42.6256 17.7772 42.6256 20.9863C42.6255 22.7783 42.2767 24.5419 41.611 26.1165C40.9452 27.6912 39.9836 29.027 38.8136 30.0023C38.1659 30.5459 37.8457 31.246 37.8457 31.8449V33.0609C37.8457 33.1305 37.8489 33.1981 37.8552 33.2636C37.9365 34.0252 38.2305 36.8534 38.5053 39.7861C38.7754 42.6635 39.0407 45.8019 39.0407 47.0886C39.0407 48.7175 38.5371 50.2797 37.6407 51.4315C36.7443 52.5833 35.5285 53.2304 34.2608 53.2304C32.9931 53.2304 31.7773 52.5833 30.8809 51.4315C29.9845 50.2797 29.4809 48.7175 29.4809 47.0886C29.4809 45.7989 29.7462 42.6666 30.0162 39.7861C30.2911 36.8534 30.5851 34.0252 30.6663 33.2636L30.6759 33.0609V31.8449C30.6759 31.246 30.3556 30.5459 29.7079 30.0023C28.538 29.027 27.5764 27.6912 26.9106 26.1165C26.2448 24.5419 25.8961 22.7783 25.896 20.9863C25.896 17.7772 26.3453 14.9459 26.7038 13.1893ZM37.8457 22.5217C37.8457 22.9289 37.7198 23.3195 37.4957 23.6074C37.2716 23.8954 36.9676 24.0571 36.6507 24.0571C36.3338 24.0571 36.0298 23.8954 35.8057 23.6074C35.5816 23.3195 35.4557 22.9289 35.4557 22.5217V14.8445C35.4557 14.4373 35.3298 14.0468 35.1057 13.7588C34.8816 13.4709 34.5777 13.3091 34.2608 13.3091C33.9439 13.3091 33.6399 13.4709 33.4158 13.7588C33.1917 14.0468 33.0658 14.4373 33.0658 14.8445V22.5217C33.0658 22.9289 32.9399 23.3195 32.7158 23.6074C32.4917 23.8954 32.1878 24.0571 31.8708 24.0571C31.5539 24.0571 31.25 23.8954 31.0259 23.6074C30.8018 23.3195 30.6759 22.9289 30.6759 22.5217V14.4914C30.6759 14.1778 30.5789 13.8771 30.4064 13.6554C30.2338 13.4337 29.9998 13.3091 29.7557 13.3091C29.359 13.3091 29.0866 13.6131 29.0149 13.9693C28.5439 16.2598 28.299 18.6173 28.2859 20.9863C28.2858 22.2669 28.535 23.5273 29.0109 24.6526C29.4868 25.7778 30.1742 26.7323 31.0105 27.4289C32.0596 28.3041 33.0658 29.8426 33.0658 31.8449V33.0609C33.0658 33.2656 33.0555 33.4704 33.0347 33.6751C32.9535 34.4305 32.6619 37.2404 32.3895 40.1546C32.1122 43.118 31.8708 46.0322 31.8708 47.0886C31.8708 47.9031 32.1226 48.6842 32.5708 49.2601C33.019 49.836 33.6269 50.1595 34.2608 50.1595C34.8946 50.1595 35.5025 49.836 35.9507 49.2601C36.3989 48.6842 36.6507 47.9031 36.6507 47.0886C36.6507 46.0322 36.4117 43.118 36.1321 40.1515C35.8596 37.2404 35.5681 34.4305 35.4868 33.672C35.4686 33.4701 35.4583 33.2672 35.4557 33.064V31.8479C35.4557 29.8457 36.4619 28.3072 37.5111 27.432C38.3477 26.7351 39.0353 25.7801 39.5112 24.6543C39.9871 23.5284 40.2361 22.2675 40.2356 20.9863C40.2356 18.1242 39.8341 15.5693 39.5067 13.9693C39.435 13.6162 39.1601 13.3091 38.7658 13.3091C38.5218 13.3091 38.2877 13.4337 38.1152 13.6554C37.9426 13.8771 37.8457 14.1778 37.8457 14.4914V22.5217ZM45.0155 24.0571C45.0155 20.3921 46.1486 16.8772 48.1655 14.2857C50.1824 11.6942 52.9179 10.2382 55.7702 10.2382C56.0871 10.2382 56.3911 10.4 56.6152 10.688C56.8393 10.9759 56.9652 11.3664 56.9652 11.7737V30.116L57.0106 30.6595C57.2007 32.9514 57.3832 35.2443 57.5579 37.5382C57.8518 41.3952 58.1601 45.719 58.1601 47.0886C58.1601 48.7175 57.6566 50.2797 56.7602 51.4315C55.8638 52.5833 54.648 53.2304 53.3803 53.2304C52.1126 53.2304 50.8968 52.5833 50.0004 51.4315C49.104 50.2797 48.6004 48.7175 48.6004 47.0886C48.6004 45.719 48.9087 41.3952 49.2027 37.5382C49.3532 35.5821 49.5038 33.7089 49.6161 32.3208L49.6639 31.7343H47.4054C46.7716 31.7343 46.1637 31.4108 45.7155 30.8349C45.2673 30.259 45.0155 29.4779 45.0155 28.6634V24.0571ZM52.1781 30.3616L52.1279 30.9819C51.9411 33.267 51.7595 35.5528 51.583 37.8392C51.2795 41.7914 50.9903 45.9156 50.9903 47.0886C50.9903 47.9031 51.2421 48.6842 51.6903 49.2601C52.1385 49.836 52.7464 50.1595 53.3803 50.1595C54.0141 50.1595 54.622 49.836 55.0702 49.2601C55.5184 48.6842 55.7702 47.9031 55.7702 47.0886C55.7702 45.9125 55.481 41.7914 55.1775 37.8392C55.0022 35.5526 54.8206 33.2668 54.6326 30.9819L54.5824 30.3647L54.5752 30.1989V13.4166C52.5841 13.7859 50.7632 15.0649 49.4463 17.0192C48.1295 18.9735 47.4049 21.4721 47.4054 24.0571V28.6634H50.9903C51.1579 28.6635 51.3236 28.7089 51.4766 28.7966C51.6297 28.8843 51.7667 29.0124 51.8787 29.1725C51.9907 29.3327 52.0752 29.5213 52.1268 29.7261C52.1784 29.931 52.1959 30.1475 52.1781 30.3616Z" fill="white"/>
</g>
<defs>
<clipPath id="clip0_1553_557">
<rect width="38.239" height="49.1339" fill="white" transform="translate(25.896 7.16504)"/>
</clipPath>
</defs>
</svg>
