<svg width="20" height="20" viewBox="0 0 20 20" fill="none" xmlns="http://www.w3.org/2000/svg">
<path d="M13.125 17.5C13.125 17.6658 13.0592 17.8247 12.9419 17.9419C12.8247 18.0592 12.6658 18.125 12.5 18.125H7.5C7.33424 18.125 7.17527 18.0592 7.05806 17.9419C6.94085 17.8247 6.875 17.6658 6.875 17.5C6.875 17.3342 6.94085 17.1753 7.05806 17.0581C7.17527 16.9408 7.33424 16.875 7.5 16.875H12.5C12.6658 16.875 12.8247 16.9408 12.9419 17.0581C13.0592 17.1753 13.125 17.3342 13.125 17.5ZM18.125 5V13.75C18.125 14.2473 17.9275 14.7242 17.5758 15.0758C17.2242 15.4275 16.7473 15.625 16.25 15.625H3.75C3.25272 15.625 2.77581 15.4275 2.42417 15.0758C2.07254 14.7242 1.875 14.2473 1.875 13.75V5C1.875 4.50272 2.07254 4.02581 2.42417 3.67417C2.77581 3.32254 3.25272 3.125 3.75 3.125H16.25C16.7473 3.125 17.2242 3.32254 17.5758 3.67417C17.9275 4.02581 18.125 4.50272 18.125 5ZM12.8125 9.375C12.8125 9.27458 12.7882 9.17564 12.7419 9.08656C12.6955 8.99749 12.6283 8.9209 12.5461 8.86328L9.42109 6.67578C9.32745 6.61018 9.21761 6.57153 9.10352 6.56402C8.98943 6.55652 8.87547 6.58045 8.77404 6.63322C8.67261 6.68599 8.5876 6.76557 8.52827 6.8633C8.46893 6.96103 8.43753 7.07317 8.4375 7.1875V11.5625C8.43753 11.6768 8.46893 11.789 8.52827 11.8867C8.5876 11.9844 8.67261 12.064 8.77404 12.1168C8.87547 12.1695 8.98943 12.1935 9.10352 12.186C9.21761 12.1785 9.32745 12.1398 9.42109 12.0742L12.5461 9.88672C12.6283 9.8291 12.6955 9.75251 12.7419 9.66344C12.7882 9.57436 12.8125 9.47542 12.8125 9.375Z" fill="#C0C4CE"/>
</svg>
