<svg width="24" height="24" viewBox="0 0 24 24" fill="none" xmlns="http://www.w3.org/2000/svg">
<path d="M22.8388 21.1229L17.637 15.9313C17.5081 15.8454 17.3791 15.7596 17.2501 15.7596H16.6913C18.0239 14.215 18.8837 12.1555 18.8837 9.92443C18.8837 5.03315 14.8427 1 9.94187 1C4.99805 1 1 5.03315 1 9.92443C1 14.8586 4.99805 18.8489 9.94187 18.8489C12.1773 18.8489 14.1979 18.0336 15.7885 16.7036V17.2613C15.7885 17.3901 15.8315 17.5188 15.9174 17.6475L21.1192 22.8391C21.3341 23.0536 21.6781 23.0536 21.85 22.8391L22.8388 21.8523C23.0537 21.6806 23.0537 21.3374 22.8388 21.1229ZM9.94187 16.7894C6.11578 16.7894 3.06351 13.7431 3.06351 9.92443C3.06351 6.14871 6.11578 3.05948 9.94187 3.05948C13.725 3.05948 16.8202 6.14871 16.8202 9.92443C16.8202 13.7431 13.725 16.7894 9.94187 16.7894Z" fill="#444444"/>
</svg>
