<svg width="24" height="24" viewBox="0 0 24 24" fill="none" xmlns="http://www.w3.org/2000/svg">
<path d="M21.6499 20.6246C21.5841 20.7387 21.4894 20.8334 21.3753 20.8992C21.2613 20.965 21.1319 20.9997 21.0002 20.9996H3.00021C2.86862 20.9995 2.73938 20.9647 2.62548 20.8989C2.51157 20.833 2.417 20.7383 2.35127 20.6243C2.28553 20.5103 2.25094 20.381 2.25098 20.2494C2.25101 20.1178 2.28566 19.9886 2.35146 19.8746C3.77927 17.4062 5.97958 15.6362 8.54739 14.7971C7.27724 14.041 6.29041 12.8888 5.73845 11.5176C5.18648 10.1463 5.09991 8.63175 5.49203 7.20652C5.88414 5.78129 6.73326 4.52418 7.90898 3.62824C9.0847 2.7323 10.522 2.24707 12.0002 2.24707C13.4784 2.24707 14.9157 2.7323 16.0914 3.62824C17.2672 4.52418 18.1163 5.78129 18.5084 7.20652C18.9005 8.63175 18.8139 10.1463 18.262 11.5176C17.71 12.8888 16.7232 14.041 15.453 14.7971C18.0208 15.6362 20.2211 17.4062 21.649 19.8746C21.7149 19.9886 21.7497 20.1178 21.7499 20.2495C21.7501 20.3811 21.7156 20.5105 21.6499 20.6246Z" fill="#EFEFEF"/>
</svg>
