<svg width="40" height="40" viewBox="0 0 40 40" fill="none" xmlns="http://www.w3.org/2000/svg">
<g clip-path="url(#clip0_1156_450)">
<path d="M18.669 30.0921C18.669 27.7011 20.276 25.7071 22.462 25.0711H7.571C7.206 25.0711 6.852 25.0291 6.509 24.9561C4.219 25.4451 2.5 27.4761 2.5 29.9121C2.5 32.7131 4.77 34.9831 7.571 34.9831H23.559C20.858 34.9831 18.668 32.7931 18.668 30.0921H18.669Z" fill="#2EC4B6"/>
<path d="M23.0311 26.9012C21.4651 27.2602 20.3511 28.8052 20.6841 30.5392C20.9671 32.0122 22.3421 33.0262 23.8421 33.0262H37.5001V26.8232H23.7271C23.4881 26.8232 23.2551 26.8502 23.0311 26.9012Z" fill="#E5E8EB"/>
<path d="M23.5589 25.0709H22.4619C20.2759 25.7059 18.6689 27.7009 18.6689 30.0919C18.6689 32.7929 20.8589 34.9829 23.5599 34.9829H35.5439C36.6239 34.9829 37.4999 34.1069 37.4999 33.0269H23.8419C22.3419 33.0269 20.9669 32.0129 20.6839 30.5399C20.3509 28.8059 21.4649 27.2609 23.0309 26.9019C23.2549 26.8509 23.4879 26.8239 23.7269 26.8239H37.4999C37.4999 25.9589 36.9429 25.2319 36.1709 24.9609C35.9729 25.0279 35.7649 25.0729 35.5439 25.0729H23.5599L23.5589 25.0709Z" fill="#00A596"/>
<path d="M22.462 25.0709H23.559C20.858 25.0709 18.668 22.8809 18.668 20.1799C18.668 17.7889 20.275 15.7949 22.461 15.1589H7.571C7.206 15.1589 6.852 15.1169 6.509 15.0439C4.219 15.5329 2.5 17.5639 2.5 19.9999C2.5 22.4359 4.219 24.4669 6.509 24.9559C6.852 25.0289 7.206 25.0709 7.571 25.0709H22.462Z" fill="#540D6E"/>
<path d="M23.0311 16.9901C21.4651 17.3491 20.3511 18.8931 20.6841 20.6281C20.9671 22.1011 22.3421 23.1151 23.8421 23.1151H37.5001V16.9121H23.7271C23.4881 16.9121 23.2551 16.9391 23.0311 16.9901Z" fill="#E5E8EB"/>
<path d="M23.5589 15.1603H22.4619C20.2759 15.7953 18.6689 17.7903 18.6689 20.1813C18.6689 22.8823 20.8589 25.0723 23.5599 25.0723H35.5439C35.7649 25.0723 35.9729 25.0273 36.1709 24.9603C36.9419 24.6983 37.4999 23.9763 37.4999 23.1163H23.8419C22.3419 23.1163 20.9669 22.1023 20.6839 20.6293C20.3509 18.8943 21.4649 17.3503 23.0309 16.9913C23.2549 16.9403 23.4879 16.9133 23.7269 16.9133H37.4999C37.4999 16.0483 36.9429 15.3203 36.1709 15.0503C35.9729 15.1173 35.7649 15.1623 35.5439 15.1623H23.5599L23.5589 15.1603Z" fill="#7E00AB"/>
<path d="M22.462 15.1601H23.559C20.858 15.1601 18.668 12.9701 18.668 10.2691C18.668 7.49207 20.83 5.24307 23.559 5.05407V5.01807H7.571C4.77 5.01807 2.5 7.28807 2.5 10.0891C2.5 12.5251 4.219 14.5561 6.509 15.0451C6.852 15.1181 7.206 15.1601 7.571 15.1601H22.462Z" fill="#FF9900"/>
<path d="M23.031 7.078C22.136 7.283 21.389 7.875 20.975 8.669C20.952 8.713 20.941 8.764 20.921 8.809C20.754 9.171 20.643 9.566 20.628 9.987C20.627 10.024 20.637 10.064 20.637 10.101C20.637 10.303 20.645 10.507 20.685 10.716C20.968 12.189 22.343 13.203 23.843 13.203H37.501V7H23.728C23.489 7 23.255 7.027 23.031 7.078Z" fill="#E5E8EB"/>
<path d="M37.5 13.204H23.842C22.342 13.204 20.967 12.19 20.684 10.717C20.644 10.508 20.636 10.304 20.636 10.102C20.636 10.065 20.626 10.025 20.627 9.98804C20.642 9.56604 20.753 9.17204 20.92 8.81004C20.941 8.76504 20.951 8.71404 20.974 8.67004C21.388 7.87604 22.135 7.28404 23.03 7.07904C23.254 7.02804 23.487 7.00104 23.726 7.00104H37.499C37.499 5.90604 36.612 5.01904 35.517 5.01904H23.92C23.796 5.01904 23.681 5.04704 23.559 5.05504C20.83 5.24404 18.668 7.49304 18.668 10.27C18.668 12.971 20.858 15.161 23.559 15.161H35.543C35.764 15.161 35.972 15.116 36.17 15.049C36.941 14.787 37.499 14.065 37.499 13.205L37.5 13.204Z" fill="#DE8500"/>
</g>
<defs>
<clipPath id="clip0_1156_450">
<rect width="40" height="40" fill="white"/>
</clipPath>
</defs>
</svg>
