<svg width="41" height="40" viewBox="0 0 41 40" fill="none" xmlns="http://www.w3.org/2000/svg">
<g clip-path="url(#clip0_437_1721)">
<path d="M31.8689 5.62305H10.5109C9.66592 5.62305 8.86492 5.97905 8.31792 6.56905C8.30392 6.58405 8.29192 6.60105 8.27892 6.61605C8.19292 6.71305 8.11392 6.81505 8.04292 6.92305C7.97692 7.02705 7.91892 7.13605 7.86592 7.24905C7.84892 7.28405 7.82792 7.31705 7.81292 7.35305C7.72892 7.55405 7.67592 7.76905 7.64092 7.99005C7.61492 8.15905 7.59892 8.32705 7.60192 8.49005C7.60392 8.56605 7.61692 8.63905 7.62492 8.71305C7.63792 8.83905 7.65192 8.96505 7.68092 9.08605C7.69992 9.16405 7.72692 9.23805 7.75092 9.31305C7.78792 9.42405 7.82692 9.53305 7.87692 9.63705C7.91192 9.71005 7.95092 9.77905 7.99192 9.84805C8.04892 9.94505 8.11092 10.039 8.17892 10.129C8.22692 10.192 8.27792 10.254 8.33092 10.314C8.40692 10.397 8.48892 10.475 8.57392 10.549C8.63292 10.601 8.69192 10.652 8.75492 10.699C8.84892 10.768 8.95092 10.827 9.05292 10.884C9.11892 10.92 9.18192 10.96 9.25092 10.992C9.36892 11.045 9.49392 11.084 9.61992 11.121C9.68192 11.139 9.74192 11.165 9.80592 11.179C9.99992 11.221 10.1999 11.247 10.4059 11.247H31.8669C32.8589 11.247 33.6629 12.051 33.6629 13.043V7.42205C33.6629 6.43005 32.8589 5.62605 31.8669 5.62605L31.8689 5.62305Z" fill="#E5E8EB"/>
<path d="M10.583 13.0402C7.95497 13.0402 5.82397 10.9093 5.82397 8.28125V31.7183C5.82397 34.1663 7.80797 36.1492 10.255 36.1492H31.868C32.86 36.1492 33.664 35.3453 33.664 34.3533V13.0402H10.583Z" fill="#FA6050"/>
<path d="M7.64495 7.9901C7.61495 8.1601 7.59495 8.3301 7.60495 8.4901C7.60495 8.5701 7.61495 8.6401 7.62495 8.7101C7.63495 8.8401 7.65495 8.9601 7.68495 9.0901C7.69495 9.1601 7.72495 9.2401 7.75495 9.3101C7.78495 9.4201 7.82495 9.5301 7.87495 9.6401C7.91495 9.7101 7.95495 9.7801 7.99495 9.8501C8.04495 9.9501 8.11495 10.0401 8.17495 10.1301C8.22495 10.1901 8.27495 10.2501 8.33495 10.3101C8.40495 10.4001 8.48495 10.4701 8.57495 10.5501C8.63495 10.6001 8.69495 10.6501 8.75495 10.7001C8.84495 10.7701 8.95495 10.8301 9.05495 10.8801C9.12495 10.9201 9.18495 10.9601 9.25495 10.9901C9.37495 11.0401 9.49495 11.0801 9.62495 11.1201C9.68495 11.1401 9.74495 11.1601 9.80495 11.1801C10.005 11.2201 10.205 11.2401 10.405 11.2401H31.865C32.865 11.2401 33.665 12.0501 33.665 13.0401H10.585C7.95495 13.0401 5.82495 10.9101 5.82495 8.2801C5.82495 5.8301 7.80495 3.8501 10.255 3.8501H31.895C32.875 3.8501 33.665 4.6401 33.665 5.6201V7.4201C33.665 6.4301 32.865 5.6201 31.865 5.6201H10.515C9.66495 5.6201 8.86495 5.9801 8.31495 6.5701C8.30495 6.5801 8.29495 6.6001 8.27495 6.6201C8.19495 6.7101 8.11495 6.8201 8.04495 6.9201C7.97495 7.0301 7.92495 7.1401 7.86495 7.2501C7.84495 7.2801 7.82495 7.3201 7.81495 7.3501C7.74495 7.5201 7.68495 7.6901 7.65495 7.8801C7.64495 7.9101 7.64495 7.9501 7.64495 7.9901Z" fill="#DA594C"/>
</g>
<defs>
<clipPath id="clip0_437_1721">
<rect width="40" height="40" fill="white" transform="translate(0.125)"/>
</clipPath>
</defs>
</svg>
