<svg width="41" height="40" viewBox="0 0 41 40" fill="none" xmlns="http://www.w3.org/2000/svg">
<g clip-path="url(#clip0_437_1737)">
<path d="M32.6189 5.62305H11.2609C10.4159 5.62305 9.61492 5.97905 9.06792 6.56905C9.05392 6.58405 9.04192 6.60105 9.02892 6.61605C8.94292 6.71305 8.86392 6.81505 8.79292 6.92305C8.72692 7.02705 8.66892 7.13605 8.61592 7.24905C8.59892 7.28405 8.57792 7.31705 8.56292 7.35305C8.47892 7.55405 8.42592 7.76905 8.39092 7.99005C8.36492 8.15905 8.34892 8.32705 8.35192 8.49005C8.35392 8.56605 8.36692 8.63905 8.37492 8.71305C8.38792 8.83905 8.40192 8.96505 8.43092 9.08605C8.44992 9.16405 8.47692 9.23805 8.50092 9.31305C8.53792 9.42405 8.57692 9.53305 8.62692 9.63705C8.66192 9.71005 8.70092 9.77905 8.74192 9.84805C8.79892 9.94505 8.86092 10.039 8.92892 10.129C8.97692 10.192 9.02792 10.254 9.08092 10.314C9.15692 10.397 9.23892 10.475 9.32392 10.549C9.38292 10.601 9.44192 10.652 9.50492 10.699C9.59892 10.768 9.70092 10.827 9.80292 10.884C9.86892 10.92 9.93192 10.96 10.0009 10.992C10.1189 11.045 10.2439 11.084 10.3699 11.121C10.4319 11.139 10.4919 11.165 10.5559 11.179C10.7499 11.221 10.9499 11.247 11.1559 11.247H32.6169C33.6089 11.247 34.4129 12.051 34.4129 13.043V7.42205C34.4129 6.43005 33.6089 5.62605 32.6169 5.62605L32.6189 5.62305Z" fill="#E5E8EB"/>
<path d="M11.333 13.0402C8.70497 13.0402 6.57397 10.9093 6.57397 8.28125V31.7183C6.57397 34.1663 8.55797 36.1492 11.005 36.1492H32.618C33.61 36.1492 34.414 35.3453 34.414 34.3533V13.0402H11.333Z" fill="#AF47D2"/>
<path d="M8.39495 7.9901C8.36495 8.1601 8.34495 8.3301 8.35495 8.4901C8.35495 8.5701 8.36495 8.6401 8.37495 8.7101C8.38495 8.8401 8.40495 8.9601 8.43495 9.0901C8.44495 9.1601 8.47495 9.2401 8.50495 9.3101C8.53495 9.4201 8.57495 9.5301 8.62495 9.6401C8.66495 9.7101 8.70495 9.7801 8.74495 9.8501C8.79495 9.9501 8.86495 10.0401 8.92495 10.1301C8.97495 10.1901 9.02495 10.2501 9.08495 10.3101C9.15495 10.4001 9.23495 10.4701 9.32495 10.5501C9.38495 10.6001 9.44495 10.6501 9.50495 10.7001C9.59495 10.7701 9.70495 10.8301 9.80495 10.8801C9.87495 10.9201 9.93495 10.9601 10.005 10.9901C10.125 11.0401 10.245 11.0801 10.375 11.1201C10.435 11.1401 10.495 11.1601 10.555 11.1801C10.755 11.2201 10.955 11.2401 11.155 11.2401H32.615C33.615 11.2401 34.415 12.0501 34.415 13.0401H11.335C8.70495 13.0401 6.57495 10.9101 6.57495 8.2801C6.57495 5.8301 8.55495 3.8501 11.005 3.8501H32.645C33.625 3.8501 34.415 4.6401 34.415 5.6201V7.4201C34.415 6.4301 33.615 5.6201 32.615 5.6201H11.265C10.415 5.6201 9.61495 5.9801 9.06495 6.5701C9.05495 6.5801 9.04495 6.6001 9.02495 6.6201C8.94495 6.7101 8.86495 6.8201 8.79495 6.9201C8.72495 7.0301 8.67495 7.1401 8.61495 7.2501C8.59495 7.2801 8.57495 7.3201 8.56495 7.3501C8.49495 7.5201 8.43495 7.6901 8.40495 7.8801C8.39495 7.9101 8.39495 7.9501 8.39495 7.9901Z" fill="#A801E0"/>
</g>
<defs>
<clipPath id="clip0_437_1737">
<rect width="40" height="40" fill="white" transform="translate(0.875)"/>
</clipPath>
</defs>
</svg>
