<svg width="41" height="40" viewBox="0 0 41 40" fill="none" xmlns="http://www.w3.org/2000/svg">
<g clip-path="url(#clip0_437_1729)">
<path d="M32.749 5.62305H11.392C10.547 5.62305 9.74603 5.97905 9.19903 6.56905C9.18603 6.58405 9.17403 6.60005 9.16103 6.61505C9.07503 6.71205 8.99503 6.81505 8.92403 6.92405C8.85803 7.02805 8.80003 7.13605 8.74803 7.24905C8.73103 7.28405 8.71003 7.31705 8.69403 7.35305C8.61003 7.55405 8.55703 7.76905 8.52203 7.99005C8.49603 8.15905 8.48003 8.32705 8.48303 8.49005C8.48503 8.56605 8.49803 8.63805 8.50503 8.71305C8.51803 8.84005 8.53203 8.96605 8.56103 9.08705C8.58003 9.16505 8.60603 9.23805 8.63103 9.31305C8.66803 9.42405 8.70703 9.53305 8.75703 9.63705C8.79203 9.71005 8.83103 9.77905 8.87103 9.84805C8.92803 9.94505 8.99003 10.039 9.05903 10.129C9.10703 10.192 9.15703 10.254 9.21103 10.313C9.28703 10.397 9.36903 10.474 9.45403 10.548C9.51303 10.6 9.57203 10.651 9.63503 10.698C9.72903 10.767 9.83103 10.826 9.93403 10.883C10 10.919 10.063 10.959 10.132 10.99C10.25 11.043 10.375 11.082 10.501 11.119C10.563 11.137 10.623 11.162 10.687 11.177C10.881 11.219 11.081 11.245 11.287 11.245H32.748C33.74 11.245 34.544 12.049 34.544 13.041V7.42005C34.544 6.42805 33.74 5.62405 32.748 5.62405L32.749 5.62305Z" fill="#E5E8EB"/>
<path d="M11.4631 13.0402C8.8351 13.0402 6.7041 10.9093 6.7041 8.28125V31.7183C6.7041 34.1663 8.6881 36.1492 11.1351 36.1492H32.7481C33.7401 36.1492 34.5441 35.3453 34.5441 34.3533V13.0402H11.4631Z" fill="#2EC4B6"/>
<path d="M8.52508 7.9901C8.49508 8.1601 8.47508 8.3301 8.48508 8.4901C8.48508 8.5701 8.49508 8.6401 8.50508 8.7101C8.51508 8.8401 8.53508 8.9701 8.56508 9.0901C8.57508 9.1601 8.60508 9.2401 8.63508 9.3101C8.66508 9.4201 8.70508 9.5301 8.75508 9.6401C8.79508 9.7101 8.83508 9.7801 8.87508 9.8501C8.92508 9.9501 8.99508 10.0401 9.05508 10.1301C9.10508 10.1901 9.15508 10.2501 9.21508 10.3101C9.28508 10.4001 9.36508 10.4701 9.45508 10.5501C9.51508 10.6001 9.57508 10.6501 9.63508 10.7001C9.73508 10.7701 9.83508 10.8301 9.93508 10.8801C10.0051 10.9201 10.0651 10.9601 10.1351 10.9901C10.2551 11.0401 10.3751 11.0801 10.5051 11.1201C10.5651 11.1401 10.6251 11.1601 10.6851 11.1801C10.8851 11.2201 11.0851 11.2401 11.2851 11.2401H32.7451C33.7451 11.2401 34.5451 12.0501 34.5451 13.0401H11.4651C8.83508 13.0401 6.70508 10.9101 6.70508 8.2801C6.70508 5.8301 8.68508 3.8501 11.1351 3.8501H32.7751C33.7551 3.8501 34.5451 4.6401 34.5451 5.6201V7.4201C34.5451 6.4301 33.7451 5.6201 32.7451 5.6201H11.3951C10.5451 5.6201 9.74508 5.9801 9.19508 6.5701C9.18508 6.5801 9.17508 6.6001 9.16508 6.6101C9.07508 6.7101 8.99508 6.8101 8.92508 6.9201C8.85508 7.0301 8.80508 7.1401 8.74508 7.2501C8.73508 7.2801 8.70508 7.3201 8.69508 7.3501C8.62508 7.5201 8.56508 7.6901 8.53508 7.8801C8.52508 7.9101 8.52508 7.9501 8.52508 7.9901Z" fill="#2DE0CF"/>
</g>
<defs>
<clipPath id="clip0_437_1729">
<rect width="40" height="40" fill="white" transform="translate(0.625)"/>
</clipPath>
</defs>
</svg>
