<svg width="40" height="40" viewBox="0 0 40 40" fill="none" xmlns="http://www.w3.org/2000/svg">
<g clip-path="url(#clip0_1142_445)">
<path d="M32.124 5.62305H10.767C9.92203 5.62305 9.12103 5.97905 8.57403 6.56905C8.56103 6.58405 8.54903 6.60005 8.53603 6.61505C8.45003 6.71205 8.37003 6.81505 8.29903 6.92405C8.23303 7.02805 8.17503 7.13605 8.12303 7.24905C8.10603 7.28405 8.08503 7.31705 8.06903 7.35305C7.98503 7.55405 7.93203 7.76905 7.89703 7.99005C7.87103 8.15905 7.85503 8.32705 7.85803 8.49005C7.86003 8.56605 7.87303 8.63805 7.88003 8.71305C7.89303 8.84005 7.90703 8.96605 7.93603 9.08705C7.95503 9.16505 7.98103 9.23805 8.00603 9.31305C8.04303 9.42405 8.08203 9.53305 8.13203 9.63705C8.16703 9.71005 8.20603 9.77905 8.24603 9.84805C8.30303 9.94505 8.36503 10.039 8.43403 10.129C8.48203 10.192 8.53203 10.254 8.58603 10.313C8.66203 10.397 8.74403 10.474 8.82903 10.548C8.88803 10.6 8.94703 10.651 9.01003 10.698C9.10403 10.767 9.20603 10.826 9.30903 10.883C9.37503 10.919 9.43803 10.959 9.50703 10.99C9.62503 11.043 9.75003 11.082 9.87603 11.119C9.93803 11.137 9.99803 11.162 10.062 11.177C10.256 11.219 10.456 11.245 10.662 11.245H32.123C33.115 11.245 33.919 12.049 33.919 13.041V7.42005C33.919 6.42805 33.115 5.62405 32.123 5.62405L32.124 5.62305Z" fill="#E5E8EB"/>
<path d="M10.8381 13.0402C8.2101 13.0402 6.0791 10.9093 6.0791 8.28125V31.7183C6.0791 34.1663 8.0631 36.1492 10.5101 36.1492H32.1231C33.1151 36.1492 33.9191 35.3453 33.9191 34.3533V13.0402H10.8381Z" fill="#FFA300"/>
<path d="M7.90008 7.9901C7.87008 8.1601 7.85008 8.3301 7.86008 8.4901C7.86008 8.5701 7.87008 8.6401 7.88008 8.7101C7.89008 8.8401 7.91008 8.9701 7.94008 9.0901C7.95008 9.1601 7.98008 9.2401 8.01008 9.3101C8.04008 9.4201 8.08008 9.5301 8.13008 9.6401C8.17008 9.7101 8.21008 9.7801 8.25008 9.8501C8.30008 9.9501 8.37008 10.0401 8.43008 10.1301C8.48008 10.1901 8.53008 10.2501 8.59008 10.3101C8.66008 10.4001 8.74008 10.4701 8.83008 10.5501C8.89008 10.6001 8.95008 10.6501 9.01008 10.7001C9.11008 10.7701 9.21008 10.8301 9.31008 10.8801C9.38008 10.9201 9.44008 10.9601 9.51008 10.9901C9.63008 11.0401 9.75008 11.0801 9.88008 11.1201C9.94008 11.1401 10.0001 11.1601 10.0601 11.1801C10.2601 11.2201 10.4601 11.2401 10.6601 11.2401H32.1201C33.1201 11.2401 33.9201 12.0501 33.9201 13.0401H10.8401C8.21008 13.0401 6.08008 10.9101 6.08008 8.2801C6.08008 5.8301 8.06008 3.8501 10.5101 3.8501H32.1501C33.1301 3.8501 33.9201 4.6401 33.9201 5.6201V7.4201C33.9201 6.4301 33.1201 5.6201 32.1201 5.6201H10.7701C9.92008 5.6201 9.12008 5.9801 8.57008 6.5701C8.56008 6.5801 8.55008 6.6001 8.54008 6.6101C8.45008 6.7101 8.37008 6.8101 8.30008 6.9201C8.23008 7.0301 8.18008 7.1401 8.12008 7.2501C8.11008 7.2801 8.08008 7.3201 8.07008 7.3501C8.00008 7.5201 7.94008 7.6901 7.91008 7.8801C7.90008 7.9101 7.90008 7.9501 7.90008 7.9901Z" fill="#E59200"/>
</g>
<defs>
<clipPath id="clip0_1142_445">
<rect width="40" height="40" fill="white"/>
</clipPath>
</defs>
</svg>
