<svg width="41" height="40" viewBox="0 0 41 40" fill="none" xmlns="http://www.w3.org/2000/svg">
<g clip-path="url(#clip0_437_1705)">
<path d="M32.249 5.62305H10.892C10.047 5.62305 9.24603 5.97905 8.69903 6.56905C8.68603 6.58405 8.67403 6.60005 8.66103 6.61505C8.57503 6.71205 8.49503 6.81505 8.42403 6.92405C8.35803 7.02805 8.30003 7.13605 8.24803 7.24905C8.23103 7.28405 8.21003 7.31705 8.19403 7.35305C8.11003 7.55405 8.05703 7.76905 8.02203 7.99005C7.99603 8.15905 7.98003 8.32705 7.98303 8.49005C7.98503 8.56605 7.99803 8.63805 8.00503 8.71305C8.01803 8.84005 8.03203 8.96605 8.06103 9.08705C8.08003 9.16505 8.10603 9.23805 8.13103 9.31305C8.16803 9.42405 8.20703 9.53305 8.25703 9.63705C8.29203 9.71005 8.33103 9.77905 8.37103 9.84805C8.42803 9.94505 8.49003 10.039 8.55903 10.129C8.60703 10.192 8.65703 10.254 8.71103 10.313C8.78703 10.397 8.86903 10.474 8.95403 10.548C9.01303 10.6 9.07203 10.651 9.13503 10.698C9.22903 10.767 9.33103 10.826 9.43403 10.883C9.50003 10.919 9.56303 10.959 9.63203 10.99C9.75003 11.043 9.87503 11.082 10.001 11.119C10.063 11.137 10.123 11.162 10.187 11.177C10.381 11.219 10.581 11.245 10.787 11.245H32.248C33.24 11.245 34.044 12.049 34.044 13.041V7.42005C34.044 6.42805 33.24 5.62405 32.248 5.62405L32.249 5.62305Z" fill="#E5E8EB"/>
<path d="M10.9631 13.0402C8.3351 13.0402 6.2041 10.9093 6.2041 8.28125V31.7183C6.2041 34.1663 8.1881 36.1492 10.6351 36.1492H32.2481C33.2401 36.1492 34.0441 35.3453 34.0441 34.3533V13.0402H10.9631Z" fill="#540D6E"/>
<path d="M8.02508 7.9901C7.99508 8.1601 7.97508 8.3301 7.98508 8.4901C7.98508 8.5701 7.99508 8.6401 8.00508 8.7101C8.01508 8.8401 8.03508 8.9701 8.06508 9.0901C8.07508 9.1601 8.10508 9.2401 8.13508 9.3101C8.16508 9.4201 8.20508 9.5301 8.25508 9.6401C8.29508 9.7101 8.33508 9.7801 8.37508 9.8501C8.42508 9.9501 8.49508 10.0401 8.55508 10.1301C8.60508 10.1901 8.65508 10.2501 8.71508 10.3101C8.78508 10.4001 8.86508 10.4701 8.95508 10.5501C9.01508 10.6001 9.07508 10.6501 9.13508 10.7001C9.23508 10.7701 9.33508 10.8301 9.43508 10.8801C9.50508 10.9201 9.56508 10.9601 9.63508 10.9901C9.75508 11.0401 9.87508 11.0801 10.0051 11.1201C10.0651 11.1401 10.1251 11.1601 10.1851 11.1801C10.3851 11.2201 10.5851 11.2401 10.7851 11.2401H32.2451C33.2451 11.2401 34.0451 12.0501 34.0451 13.0401H10.9651C8.33508 13.0401 6.20508 10.9101 6.20508 8.2801C6.20508 5.8301 8.18508 3.8501 10.6351 3.8501H32.2751C33.2551 3.8501 34.0451 4.6401 34.0451 5.6201V7.4201C34.0451 6.4301 33.2451 5.6201 32.2451 5.6201H10.8951C10.0451 5.6201 9.24508 5.9801 8.69508 6.5701C8.68508 6.5801 8.67508 6.6001 8.66508 6.6101C8.57508 6.7101 8.49508 6.8101 8.42508 6.9201C8.35508 7.0301 8.30508 7.1401 8.24508 7.2501C8.23508 7.2801 8.20508 7.3201 8.19508 7.3501C8.12508 7.5201 8.06508 7.6901 8.03508 7.8801C8.02508 7.9101 8.02508 7.9501 8.02508 7.9901Z" fill="#540D6E"/>
</g>
<defs>
<clipPath id="clip0_437_1705">
<rect width="40" height="40" fill="white" transform="translate(0.125)"/>
</clipPath>
</defs>
</svg>
