<svg width="41" height="40" viewBox="0 0 41 40" fill="none" xmlns="http://www.w3.org/2000/svg">
<g clip-path="url(#clip0_437_1697)">
<path d="M32.1189 5.62305H10.7609C9.91592 5.62305 9.11492 5.97905 8.56792 6.56905C8.55392 6.58405 8.54192 6.60105 8.52892 6.61605C8.44292 6.71305 8.36392 6.81505 8.29292 6.92305C8.22692 7.02705 8.16892 7.13605 8.11592 7.24905C8.09892 7.28405 8.07792 7.31705 8.06292 7.35305C7.97892 7.55405 7.92592 7.76905 7.89092 7.99005C7.86492 8.15905 7.84892 8.32705 7.85192 8.49005C7.85392 8.56605 7.86692 8.63905 7.87492 8.71305C7.88792 8.83905 7.90192 8.96505 7.93092 9.08605C7.94992 9.16405 7.97692 9.23805 8.00092 9.31305C8.03792 9.42405 8.07692 9.53305 8.12692 9.63705C8.16192 9.71005 8.20092 9.77905 8.24192 9.84805C8.29892 9.94505 8.36092 10.039 8.42892 10.129C8.47692 10.192 8.52792 10.254 8.58092 10.314C8.65692 10.397 8.73892 10.475 8.82392 10.549C8.88292 10.601 8.94192 10.652 9.00492 10.699C9.09892 10.768 9.20092 10.827 9.30292 10.884C9.36892 10.92 9.43192 10.96 9.50092 10.992C9.61892 11.045 9.74392 11.084 9.86992 11.121C9.93192 11.139 9.99192 11.165 10.0559 11.179C10.2499 11.221 10.4499 11.247 10.6559 11.247H32.1169C33.1089 11.247 33.9129 12.051 33.9129 13.043V7.42205C33.9129 6.43005 33.1089 5.62605 32.1169 5.62605L32.1189 5.62305Z" fill="#E5E8EB"/>
<path d="M10.833 13.0402C8.20497 13.0402 6.07397 10.9093 6.07397 8.28125V31.7183C6.07397 34.1663 8.05797 36.1492 10.505 36.1492H32.118C33.11 36.1492 33.914 35.3453 33.914 34.3533V13.0402H10.833Z" fill="#E71D36"/>
<path d="M7.89495 7.9901C7.86495 8.1601 7.84495 8.3301 7.85495 8.4901C7.85495 8.5701 7.86495 8.6401 7.87495 8.7101C7.88495 8.8401 7.90495 8.9601 7.93495 9.0901C7.94495 9.1601 7.97495 9.2401 8.00495 9.3101C8.03495 9.4201 8.07495 9.5301 8.12495 9.6401C8.16495 9.7101 8.20495 9.7801 8.24495 9.8501C8.29495 9.9501 8.36495 10.0401 8.42495 10.1301C8.47495 10.1901 8.52495 10.2501 8.58495 10.3101C8.65495 10.4001 8.73495 10.4701 8.82495 10.5501C8.88495 10.6001 8.94495 10.6501 9.00495 10.7001C9.09495 10.7701 9.20495 10.8301 9.30495 10.8801C9.37495 10.9201 9.43495 10.9601 9.50495 10.9901C9.62495 11.0401 9.74495 11.0801 9.87495 11.1201C9.93495 11.1401 9.99495 11.1601 10.055 11.1801C10.255 11.2201 10.455 11.2401 10.655 11.2401H32.115C33.115 11.2401 33.915 12.0501 33.915 13.0401H10.835C8.20495 13.0401 6.07495 10.9101 6.07495 8.2801C6.07495 5.8301 8.05495 3.8501 10.505 3.8501H32.145C33.125 3.8501 33.915 4.6401 33.915 5.6201V7.4201C33.915 6.4301 33.115 5.6201 32.115 5.6201H10.765C9.91495 5.6201 9.11495 5.9801 8.56495 6.5701C8.55495 6.5801 8.54495 6.6001 8.52495 6.6201C8.44495 6.7101 8.36495 6.8201 8.29495 6.9201C8.22495 7.0301 8.17495 7.1401 8.11495 7.2501C8.09495 7.2801 8.07495 7.3201 8.06495 7.3501C7.99495 7.5201 7.93495 7.6901 7.90495 7.8801C7.89495 7.9101 7.89495 7.9501 7.89495 7.9901Z" fill="#BB1B2A"/>
</g>
<defs>
<clipPath id="clip0_437_1697">
<rect width="40" height="40" fill="white" transform="translate(0.375)"/>
</clipPath>
</defs>
</svg>
