<svg width="41" height="40" viewBox="0 0 41 40" fill="none" xmlns="http://www.w3.org/2000/svg">
<g clip-path="url(#clip0_437_1713)">
<path d="M32.999 5.62305H11.642C10.797 5.62305 9.99603 5.97905 9.44903 6.56905C9.43603 6.58405 9.42403 6.60005 9.41103 6.61505C9.32503 6.71205 9.24503 6.81505 9.17403 6.92405C9.10803 7.02805 9.05003 7.13605 8.99803 7.24905C8.98103 7.28405 8.96003 7.31705 8.94403 7.35305C8.86003 7.55405 8.80703 7.76905 8.77203 7.99005C8.74603 8.15905 8.73003 8.32705 8.73303 8.49005C8.73503 8.56605 8.74803 8.63805 8.75503 8.71305C8.76803 8.84005 8.78203 8.96605 8.81103 9.08705C8.83003 9.16505 8.85603 9.23805 8.88103 9.31305C8.91803 9.42405 8.95703 9.53305 9.00703 9.63705C9.04203 9.71005 9.08103 9.77905 9.12103 9.84805C9.17803 9.94505 9.24003 10.039 9.30903 10.129C9.35703 10.192 9.40703 10.254 9.46103 10.313C9.53703 10.397 9.61903 10.474 9.70403 10.548C9.76303 10.6 9.82203 10.651 9.88503 10.698C9.97903 10.767 10.081 10.826 10.184 10.883C10.25 10.919 10.313 10.959 10.382 10.99C10.5 11.043 10.625 11.082 10.751 11.119C10.813 11.137 10.873 11.162 10.937 11.177C11.131 11.219 11.331 11.245 11.537 11.245H32.998C33.99 11.245 34.794 12.049 34.794 13.041V7.42005C34.794 6.42805 33.99 5.62405 32.998 5.62405L32.999 5.62305Z" fill="#E5E8EB"/>
<path d="M11.7131 13.0402C9.0851 13.0402 6.9541 10.9093 6.9541 8.28125V31.7183C6.9541 34.1663 8.9381 36.1492 11.3851 36.1492H32.9981C33.9901 36.1492 34.7941 35.3453 34.7941 34.3533V13.0402H11.7131Z" fill="#F5ED15"/>
<path d="M8.77508 7.9901C8.74508 8.1601 8.72508 8.3301 8.73508 8.4901C8.73508 8.5701 8.74508 8.6401 8.75508 8.7101C8.76508 8.8401 8.78508 8.9701 8.81508 9.0901C8.82508 9.1601 8.85508 9.2401 8.88508 9.3101C8.91508 9.4201 8.95508 9.5301 9.00508 9.6401C9.04508 9.7101 9.08508 9.7801 9.12508 9.8501C9.17508 9.9501 9.24508 10.0401 9.30508 10.1301C9.35508 10.1901 9.40508 10.2501 9.46508 10.3101C9.53508 10.4001 9.61508 10.4701 9.70508 10.5501C9.76508 10.6001 9.82508 10.6501 9.88508 10.7001C9.98508 10.7701 10.0851 10.8301 10.1851 10.8801C10.2551 10.9201 10.3151 10.9601 10.3851 10.9901C10.5051 11.0401 10.6251 11.0801 10.7551 11.1201C10.8151 11.1401 10.8751 11.1601 10.9351 11.1801C11.1351 11.2201 11.3351 11.2401 11.5351 11.2401H32.9951C33.9951 11.2401 34.7951 12.0501 34.7951 13.0401H11.7151C9.08508 13.0401 6.95508 10.9101 6.95508 8.2801C6.95508 5.8301 8.93508 3.8501 11.3851 3.8501H33.0251C34.0051 3.8501 34.7951 4.6401 34.7951 5.6201V7.4201C34.7951 6.4301 33.9951 5.6201 32.9951 5.6201H11.6451C10.7951 5.6201 9.99508 5.9801 9.44508 6.5701C9.43508 6.5801 9.42508 6.6001 9.41508 6.6101C9.32508 6.7101 9.24508 6.8101 9.17508 6.9201C9.10508 7.0301 9.05508 7.1401 8.99508 7.2501C8.98508 7.2801 8.95508 7.3201 8.94508 7.3501C8.87508 7.5201 8.81508 7.6901 8.78508 7.8801C8.77508 7.9101 8.77508 7.9501 8.77508 7.9901Z" fill="#E0D800"/>
</g>
<defs>
<clipPath id="clip0_437_1713">
<rect width="40" height="40" fill="white" transform="translate(0.875)"/>
</clipPath>
</defs>
</svg>
