<svg width="25" height="24" viewBox="0 0 25 24" fill="none" xmlns="http://www.w3.org/2000/svg">
<path d="M21.875 10.5H3.875C3.67609 10.5 3.48532 10.579 3.34467 10.7197C3.20402 10.8603 3.125 11.0511 3.125 11.25C3.1283 13.0336 3.61915 14.7824 4.54448 16.3072C5.46981 17.832 6.7944 19.0748 8.375 19.9013V20.25C8.375 20.6478 8.53304 21.0294 8.81434 21.3107C9.09564 21.592 9.47718 21.75 9.875 21.75H15.875C16.2728 21.75 16.6544 21.592 16.9357 21.3107C17.217 21.0294 17.375 20.6478 17.375 20.25V19.9013C18.9556 19.0748 20.2802 17.832 21.2055 16.3072C22.1309 14.7824 22.6217 13.0336 22.625 11.25C22.625 11.0511 22.546 10.8603 22.4053 10.7197C22.2647 10.579 22.0739 10.5 21.875 10.5ZM16.3119 18.75C16.1815 18.8099 16.071 18.906 15.9936 19.0268C15.9161 19.1476 15.875 19.2881 15.875 19.4316V20.25H9.875V19.4334C9.87537 19.2896 9.83438 19.1487 9.75693 19.0276C9.67947 18.9064 9.56881 18.8101 9.43812 18.75C8.11917 18.1431 6.98307 17.1999 6.14385 16.0151C5.30463 14.8303 4.79181 13.4456 4.65688 12H21.0903C20.9556 13.4453 20.4432 14.8298 19.6045 16.0146C18.7658 17.1993 17.6303 18.1427 16.3119 18.75ZM8.54094 5.15626C9.0425 4.53189 9.16625 4.11001 9.11469 3.92439C9.07531 3.7847 8.88875 3.71251 8.88687 3.71251C8.71711 3.65672 8.57284 3.54214 8.48005 3.38942C8.38726 3.23669 8.35206 3.05585 8.38078 2.87947C8.4095 2.70309 8.50025 2.54276 8.63669 2.42736C8.77314 2.31196 8.9463 2.24906 9.125 2.25001C9.20064 2.2501 9.27584 2.26147 9.34812 2.28376C9.44187 2.31282 10.2772 2.59595 10.5472 3.48001C10.7778 4.23657 10.4956 5.11595 9.70906 6.0947C9.2075 6.71907 9.08375 7.14095 9.13531 7.32657C9.17469 7.46626 9.3575 7.53657 9.35938 7.53751C9.52883 7.59321 9.67289 7.70748 9.76569 7.85981C9.85849 8.01214 9.89396 8.19256 9.86574 8.36869C9.83751 8.54482 9.74744 8.70512 9.61168 8.82082C9.47592 8.93652 9.30337 9.00006 9.125 9.00001C9.04936 8.99992 8.97416 8.98855 8.90188 8.96626C8.80813 8.9372 7.97281 8.65407 7.70281 7.77001C7.47219 7.01345 7.75437 6.13407 8.54094 5.15626ZM12.2909 5.15626C12.7925 4.53189 12.9162 4.11001 12.8647 3.92439C12.8253 3.7847 12.6387 3.71251 12.6369 3.71251C12.4671 3.65672 12.3228 3.54214 12.2301 3.38942C12.1373 3.23669 12.1021 3.05585 12.1308 2.87947C12.1595 2.70309 12.2503 2.54276 12.3867 2.42736C12.5231 2.31196 12.6963 2.24906 12.875 2.25001C12.9506 2.2501 13.0258 2.26147 13.0981 2.28376C13.1919 2.31282 14.0272 2.59595 14.2972 3.48001C14.5278 4.23657 14.2456 5.11595 13.4591 6.0947C12.9575 6.71907 12.8338 7.14095 12.8853 7.32657C12.9247 7.46626 13.1075 7.53657 13.1094 7.53751C13.2788 7.59321 13.4229 7.70748 13.5157 7.85981C13.6085 8.01214 13.644 8.19256 13.6157 8.36869C13.5875 8.54482 13.4974 8.70512 13.3617 8.82082C13.2259 8.93652 13.0534 9.00006 12.875 9.00001C12.7994 8.99992 12.7242 8.98855 12.6519 8.96626C12.5581 8.9372 11.7228 8.65407 11.4528 7.77001C11.2222 7.01345 11.5044 6.13407 12.2909 5.15626ZM16.0409 5.15626C16.5425 4.53189 16.6662 4.11001 16.6147 3.92439C16.5753 3.7847 16.3888 3.71251 16.3869 3.71251C16.2171 3.65672 16.0728 3.54214 15.98 3.38942C15.8873 3.23669 15.8521 3.05585 15.8808 2.87947C15.9095 2.70309 16.0002 2.54276 16.1367 2.42736C16.2731 2.31196 16.4463 2.24906 16.625 2.25001C16.7006 2.2501 16.7758 2.26147 16.8481 2.28376C16.9419 2.31282 17.7772 2.59595 18.0472 3.48001C18.2778 4.23657 17.9956 5.11595 17.2091 6.0947C16.7075 6.71907 16.5838 7.14095 16.6353 7.32657C16.6747 7.46626 16.8575 7.53657 16.8594 7.53751C17.0288 7.59321 17.1729 7.70748 17.2657 7.85981C17.3585 8.01214 17.394 8.19256 17.3657 8.36869C17.3375 8.54482 17.2474 8.70512 17.1117 8.82082C16.9759 8.93652 16.8034 9.00006 16.625 9.00001C16.5494 8.99992 16.4742 8.98855 16.4019 8.96626C16.3081 8.9372 15.4728 8.65407 15.2028 7.77001C14.9722 7.01345 15.2544 6.13407 16.0409 5.15626Z" />
</svg>
