<svg width="25" height="24" viewBox="0 0 25 24" fill="none" xmlns="http://www.w3.org/2000/svg">
<path d="M5.13156 9.75H20.1184C20.343 9.75114 20.5649 9.70186 20.7678 9.60579C20.9708 9.50973 21.1495 9.36933 21.291 9.19496C21.4324 9.02058 21.5329 8.81668 21.5851 8.59829C21.6372 8.37989 21.6396 8.15259 21.5922 7.93313C20.8956 4.64063 17.125 2.25 12.625 2.25C8.125 2.25 4.35437 4.64063 3.65781 7.93313C3.61038 8.15259 3.61282 8.37989 3.66495 8.59829C3.71708 8.81668 3.81757 9.02058 3.95901 9.19496C4.10046 9.36933 4.27924 9.50973 4.48218 9.60579C4.68512 9.70186 4.90704 9.75114 5.13156 9.75ZM12.625 3.75C16.3581 3.75 19.5822 5.68219 20.1184 8.25H5.13156L5.125 8.24344C5.66781 5.68219 8.89188 3.75 12.625 3.75ZM22.1181 14.295L18.2622 15.7012L14.7812 14.3034C14.6025 14.232 14.4031 14.232 14.2244 14.3034L10.7556 15.6919L7.28125 14.3034C7.1102 14.2351 6.91999 14.2321 6.74688 14.295L2.62187 15.795C2.44753 15.8717 2.30892 16.0119 2.23418 16.1871C2.15944 16.3624 2.15416 16.5594 2.21942 16.7384C2.28468 16.9173 2.41558 17.0648 2.58557 17.1507C2.75555 17.2367 2.95187 17.2548 3.13469 17.2012L4.375 16.7522V17.25C4.375 18.2446 4.77009 19.1984 5.47335 19.9017C6.17661 20.6049 7.13044 21 8.125 21H17.125C18.1196 21 19.0734 20.6049 19.7767 19.9017C20.4799 19.1984 20.875 18.2446 20.875 17.25V16.3434L22.6309 15.705C22.7294 15.6762 22.8209 15.6275 22.8998 15.5619C22.9787 15.4963 23.0433 15.4152 23.0896 15.3237C23.1359 15.2321 23.1629 15.132 23.169 15.0296C23.175 14.9272 23.16 14.8246 23.1249 14.7282C23.0897 14.6319 23.0352 14.5437 22.9646 14.4693C22.894 14.3948 22.8089 14.3356 22.7146 14.2953C22.6202 14.2551 22.5186 14.2346 22.416 14.2352C22.3134 14.2358 22.212 14.2574 22.1181 14.2988V14.295ZM19.375 17.25C19.375 17.8467 19.1379 18.419 18.716 18.841C18.294 19.2629 17.7217 19.5 17.125 19.5H8.125C7.52826 19.5 6.95597 19.2629 6.53401 18.841C6.11205 18.419 5.875 17.8467 5.875 17.25V16.2075L6.98781 15.8025L10.4688 17.1966C10.6475 17.268 10.8469 17.268 11.0256 17.1966L14.4944 15.8081L17.9631 17.1966C18.1342 17.2649 18.3244 17.2679 18.4975 17.205L19.3666 16.8891L19.375 17.25ZM2.125 12C2.125 11.8011 2.20402 11.6103 2.34467 11.4697C2.48532 11.329 2.67609 11.25 2.875 11.25H22.375C22.5739 11.25 22.7647 11.329 22.9053 11.4697C23.046 11.6103 23.125 11.8011 23.125 12C23.125 12.1989 23.046 12.3897 22.9053 12.5303C22.7647 12.671 22.5739 12.75 22.375 12.75H2.875C2.67609 12.75 2.48532 12.671 2.34467 12.5303C2.20402 12.3897 2.125 12.1989 2.125 12Z" />
</svg>
