<svg width="25" height="24" viewBox="0 0 25 24" fill="none" xmlns="http://www.w3.org/2000/svg">
<path d="M20.125 9.12844V9C20.125 7.01088 19.3348 5.10322 17.9283 3.6967C16.5217 2.29018 14.6141 1.5 12.625 1.5C10.6358 1.5 8.72818 2.29018 7.32166 3.6967C5.91513 5.10322 5.12496 7.01088 5.12496 9V9.12844C4.62438 9.30524 4.20243 9.65335 3.93374 10.1112C3.66504 10.5691 3.5669 11.1072 3.65667 11.6305C3.74644 12.1537 4.01834 12.6283 4.42428 12.9705C4.83023 13.3126 5.34407 13.5002 5.87496 13.5H6.1834L11.3228 22.4944C11.454 22.7239 11.6435 22.9146 11.8722 23.0473C12.1009 23.18 12.3606 23.2499 12.625 23.2499C12.8893 23.2499 13.149 23.18 13.3777 23.0473C13.6064 22.9146 13.7959 22.7239 13.9271 22.4944L19.0665 13.5H19.375C19.9058 13.5002 20.4197 13.3126 20.8256 12.9705C21.2316 12.6283 21.5035 12.1537 21.5932 11.6305C21.683 11.1072 21.5849 10.5691 21.3162 10.1112C21.0475 9.65335 20.6255 9.30524 20.125 9.12844ZM7.91027 13.5H9.72527L13.5325 20.1619L12.625 21.75L7.91027 13.5ZM13.2615 13.5L15.3006 17.0681L14.3959 18.6506L11.4531 13.5H13.2615ZM16.1678 15.5569L14.9884 13.5H17.3396L16.1678 15.5569ZM19.375 12H5.87496C5.67605 12 5.48528 11.921 5.34463 11.7803C5.20398 11.6397 5.12496 11.4489 5.12496 11.25C5.12496 11.0511 5.20398 10.8603 5.34463 10.7197C5.48528 10.579 5.67605 10.5 5.87496 10.5C6.07387 10.5 6.26464 10.421 6.40529 10.2803C6.54594 10.1397 6.62496 9.94891 6.62496 9.75V9C6.62496 7.4087 7.2571 5.88258 8.38232 4.75736C9.50754 3.63214 11.0337 3 12.625 3C14.2163 3 15.7424 3.63214 16.8676 4.75736C17.9928 5.88258 18.625 7.4087 18.625 9V9.75C18.625 9.94891 18.704 10.1397 18.8446 10.2803C18.9853 10.421 19.176 10.5 19.375 10.5C19.5739 10.5 19.7646 10.579 19.9053 10.7197C20.0459 10.8603 20.125 11.0511 20.125 11.25C20.125 11.4489 20.0459 11.6397 19.9053 11.7803C19.7646 11.921 19.5739 12 19.375 12Z" fill="#B0B2B8"/>
</svg>
