<svg width="25" height="24" viewBox="0 0 25 24" fill="none" xmlns="http://www.w3.org/2000/svg">
<g clip-path="url(#clip0_1553_549)">
<path d="M8.375 5.25V2.25C8.375 2.05109 8.45402 1.86032 8.59467 1.71967C8.73532 1.57902 8.92609 1.5 9.125 1.5C9.32391 1.5 9.51468 1.57902 9.65533 1.71967C9.79598 1.86032 9.875 2.05109 9.875 2.25V5.25C9.875 5.44891 9.79598 5.63968 9.65533 5.78033C9.51468 5.92098 9.32391 6 9.125 6C8.92609 6 8.73532 5.92098 8.59467 5.78033C8.45402 5.63968 8.375 5.44891 8.375 5.25ZM12.125 6C12.3239 6 12.5147 5.92098 12.6553 5.78033C12.796 5.63968 12.875 5.44891 12.875 5.25V2.25C12.875 2.05109 12.796 1.86032 12.6553 1.71967C12.5147 1.57902 12.3239 1.5 12.125 1.5C11.9261 1.5 11.7353 1.57902 11.5947 1.71967C11.454 1.86032 11.375 2.05109 11.375 2.25V5.25C11.375 5.44891 11.454 5.63968 11.5947 5.78033C11.7353 5.92098 11.9261 6 12.125 6ZM15.125 6C15.3239 6 15.5147 5.92098 15.6553 5.78033C15.796 5.63968 15.875 5.44891 15.875 5.25V2.25C15.875 2.05109 15.796 1.86032 15.6553 1.71967C15.5147 1.57902 15.3239 1.5 15.125 1.5C14.9261 1.5 14.7353 1.57902 14.5947 1.71967C14.454 1.86032 14.375 2.05109 14.375 2.25V5.25C14.375 5.44891 14.454 5.63968 14.5947 5.78033C14.7353 5.92098 14.9261 6 15.125 6ZM24.125 11.25V12C24.1247 12.954 23.7609 13.8719 23.1075 14.5671C22.4542 15.2622 21.5605 15.6822 20.6084 15.7416C20.0968 17.1887 19.2258 18.482 18.0772 19.5H20.375C20.5739 19.5 20.7647 19.579 20.9053 19.7197C21.046 19.8603 21.125 20.0511 21.125 20.25C21.125 20.4489 21.046 20.6397 20.9053 20.7803C20.7647 20.921 20.5739 21 20.375 21H3.875C3.67609 21 3.48532 20.921 3.34467 20.7803C3.20402 20.6397 3.125 20.4489 3.125 20.25C3.125 20.0511 3.20402 19.8603 3.34467 19.7197C3.48532 19.579 3.67609 19.5 3.875 19.5H6.17563C5.21872 18.6546 4.45203 17.6158 3.92617 16.4523C3.40031 15.2887 3.12724 14.0269 3.125 12.75V8.25C3.125 8.05109 3.20402 7.86032 3.34467 7.71967C3.48532 7.57902 3.67609 7.5 3.875 7.5H20.375C21.3696 7.5 22.3234 7.89509 23.0267 8.59835C23.7299 9.30161 24.125 10.2554 24.125 11.25ZM19.625 9H4.625V12.75C4.62789 14.1582 5.02585 15.5373 5.77363 16.7306C6.5214 17.9239 7.58899 18.8834 8.855 19.5H15.395C16.661 18.8834 17.7286 17.9239 18.4764 16.7306C19.2242 15.5373 19.6221 14.1582 19.625 12.75V9ZM22.625 11.25C22.6249 10.7848 22.4805 10.3311 22.2119 9.95137C21.9433 9.57161 21.5636 9.28443 21.125 9.12937V12.75C21.1244 13.221 21.0868 13.6912 21.0125 14.1562C21.4778 14.0188 21.8863 13.7345 22.1769 13.3459C22.4675 12.9574 22.6247 12.4852 22.625 12V11.25Z" fill="#B0B2B8"/>
</g>
<defs>
<clipPath id="clip0_1553_549">
<rect width="24" height="24" fill="white" transform="translate(0.875)"/>
</clipPath>
</defs>
</svg>
