<svg width="25" height="24" viewBox="0 0 25 24" fill="none" xmlns="http://www.w3.org/2000/svg">
<path d="M16.1251 7.12476C16.1251 7.34726 16.0591 7.56477 15.9355 7.74977C15.8119 7.93478 15.6362 8.07897 15.4306 8.16412C15.225 8.24927 14.9988 8.27155 14.7806 8.22814C14.5624 8.18473 14.3619 8.07759 14.2046 7.92025C14.0472 7.76292 13.9401 7.56246 13.8967 7.34423C13.8533 7.12601 13.8756 6.89981 13.9607 6.69424C14.0459 6.48867 14.1901 6.31297 14.3751 6.18935C14.5601 6.06574 14.7776 5.99976 15.0001 5.99976C15.2984 5.99976 15.5846 6.11828 15.7956 6.32926C16.0065 6.54024 16.1251 6.82639 16.1251 7.12476ZM20.0626 14.5385C18.6488 16.4923 16.5441 17.8085 13.8095 18.4516C11.927 18.8941 9.72757 19.0141 7.2357 18.8201C7.3857 19.9338 7.5957 21.1069 7.8657 22.3394C7.90809 22.5336 7.87167 22.7367 7.76444 22.904C7.65721 23.0714 7.48795 23.1893 7.29382 23.2319C7.2409 23.2438 7.18682 23.2498 7.13257 23.2498C6.96159 23.2496 6.79578 23.1911 6.66262 23.0839C6.52946 22.9766 6.43693 22.8271 6.40039 22.6601C6.09476 21.2626 5.8632 19.9307 5.7057 18.6644C4.44195 18.5076 3.11132 18.276 1.71382 17.9698C1.61761 17.9486 1.5265 17.9088 1.44569 17.8525C1.36488 17.7961 1.29595 17.7244 1.24285 17.6415C1.1356 17.4739 1.09931 17.2706 1.14195 17.0763C1.18459 16.882 1.30268 16.7126 1.47023 16.6053C1.63778 16.4981 1.84107 16.4618 2.03539 16.5044C3.26664 16.7744 4.43851 16.9848 5.55101 17.1354C5.35507 14.6454 5.47789 12.4479 5.91945 10.5673C6.56257 7.83257 7.87976 5.72788 9.83257 4.31226C11.1563 3.35226 13.5141 2.21601 17.1816 2.24976C19.1682 2.26945 21.0095 2.6557 21.2888 2.81976C21.3983 2.88429 21.4896 2.97558 21.5541 3.08507C21.7182 3.36632 22.1045 5.20288 22.1241 7.18945C22.1448 9.21632 21.8035 12.1348 20.0626 14.5385ZM17.8351 14.801C15.7948 14.3962 13.9205 13.3948 12.4498 11.9238C10.9791 10.4528 9.97821 8.5783 9.57382 6.53788C7.46632 8.81226 6.6282 12.4188 7.06507 17.306C11.9541 17.7448 15.5626 16.9076 17.836 14.801H17.8351ZM20.2913 4.08351C19.0819 3.83643 17.8485 3.72605 16.6145 3.75445C14.3326 3.81445 12.4229 4.36288 10.9182 5.38476C11.1227 7.45591 12.0387 9.39216 13.5103 10.8639C14.9819 12.3356 16.918 13.2519 18.9891 13.4566C20.012 11.9566 20.5604 10.0423 20.6204 7.76038C20.6487 6.5263 20.5383 5.29294 20.2913 4.08351Z" />
</svg>
