<svg width="25" height="24" viewBox="0 0 25 24" fill="none" xmlns="http://www.w3.org/2000/svg">
<path d="M21.125 9.75012H20.3403C20.1519 7.70157 19.2049 5.79733 17.685 4.41089C16.1652 3.02445 14.1822 2.25586 12.125 2.25586C10.0678 2.25586 8.08481 3.02445 6.56498 4.41089C5.04515 5.79733 4.09814 7.70157 3.90969 9.75012H3.125C2.92609 9.75012 2.73532 9.82914 2.59467 9.96979C2.45402 10.1104 2.375 10.3012 2.375 10.5001C2.3783 12.2837 2.86915 14.0325 3.79448 15.5573C4.71981 17.0821 6.0444 18.3249 7.625 19.1514V19.5001C7.625 19.8979 7.78304 20.2795 8.06434 20.5608C8.34564 20.8421 8.72718 21.0001 9.125 21.0001H15.125C15.5228 21.0001 15.9044 20.8421 16.1857 20.5608C16.467 20.2795 16.625 19.8979 16.625 19.5001V19.1514C18.2056 18.3249 19.5302 17.0821 20.4555 15.5573C21.3809 14.0325 21.8717 12.2837 21.875 10.5001C21.875 10.3012 21.796 10.1104 21.6553 9.96979C21.5147 9.82914 21.3239 9.75012 21.125 9.75012ZM18.8319 9.75012H14.0112C14.9205 8.38595 16.2962 7.40029 17.8803 6.97793C18.3983 7.82042 18.7232 8.76714 18.8319 9.75012ZM16.3887 5.27168C16.5606 5.41231 16.7253 5.56075 16.8828 5.717C14.8863 6.41933 13.2364 7.86275 12.275 9.74825H9.50937C9.97813 8.43427 10.8411 7.29706 11.9805 6.49198C13.1198 5.68689 14.4799 5.25319 15.875 5.25012C16.0466 5.25012 16.2181 5.25856 16.3887 5.27168ZM12.125 3.75012C12.7268 3.75052 13.3259 3.83155 13.9062 3.99106C12.4929 4.34166 11.197 5.05863 10.149 6.0697C9.10106 7.08078 8.33816 8.35023 7.93719 9.75012H5.41812C5.60417 8.10093 6.39062 6.57787 7.62754 5.47132C8.86446 4.36476 10.4653 3.75209 12.125 3.75012ZM15.5619 18.0001C15.431 18.0602 15.3203 18.1567 15.2428 18.2781C15.1654 18.3994 15.1245 18.5405 15.125 18.6845V19.5001H9.125V18.6845C9.12555 18.5405 9.08465 18.3994 9.00718 18.2781C8.92971 18.1567 8.81895 18.0602 8.68812 18.0001C7.36917 17.3932 6.23307 16.45 5.39385 15.2652C4.55463 14.0804 4.04181 12.6957 3.90688 11.2501H20.3403C20.2056 12.6954 19.6932 14.0799 18.8545 15.2647C18.0158 16.4494 16.8803 17.3928 15.5619 18.0001Z" />
</svg>
