<svg width="25" height="24" viewBox="0 0 25 24" fill="none" xmlns="http://www.w3.org/2000/svg">
<path d="M21.8308 13.7407L16.5949 4.74914L16.5846 4.73132C16.1134 3.97284 15.4566 3.34705 14.6763 2.91312C13.8959 2.47919 13.0178 2.25146 12.1249 2.25146C11.232 2.25146 10.3539 2.47919 9.57349 2.91312C8.79313 3.34705 8.13633 3.97284 7.6652 4.73132L7.65489 4.74914L2.41895 13.7407C1.92777 14.5359 1.65776 15.4477 1.63682 16.3821C1.61587 17.3165 1.84474 18.2395 2.2998 19.0559C2.75485 19.8723 3.41959 20.5524 4.22535 21.0259C5.03112 21.4995 5.9487 21.7494 6.88332 21.7498H17.3664C18.3011 21.7494 19.2187 21.4995 20.0244 21.0259C20.8302 20.5524 21.4949 19.8723 21.95 19.0559C22.405 18.2395 22.6339 17.3165 22.613 16.3821C22.592 15.4477 22.322 14.5359 21.8308 13.7407ZM15.1249 20.2498H9.12489V15.7498H15.1249V20.2498ZM20.643 18.3232C20.322 18.9105 19.8478 19.3998 19.2708 19.7391C18.6939 20.0783 18.0357 20.2548 17.3664 20.2498H16.6249V15.7498C16.6249 15.3519 16.4669 14.9704 16.1855 14.6891C15.9042 14.4078 15.5227 14.2498 15.1249 14.2498H9.12489C8.72706 14.2498 8.34553 14.4078 8.06423 14.6891C7.78292 14.9704 7.62489 15.3519 7.62489 15.7498V20.2498H6.88332C6.21487 20.25 5.55851 20.0715 4.98221 19.7328C4.40591 19.3941 3.93062 18.9075 3.60554 18.3234C3.28046 17.7393 3.11742 17.079 3.13329 16.4107C3.14917 15.7424 3.34338 15.0906 3.69582 14.5226C3.69961 14.5165 3.70306 14.5103 3.70614 14.5038L8.94207 5.5132C9.27916 4.97385 9.74789 4.5291 10.3042 4.22078C10.8605 3.91245 11.4861 3.75068 12.1221 3.75068C12.7581 3.75068 13.3837 3.91245 13.94 4.22078C14.4963 4.5291 14.965 4.97385 15.3021 5.5132L20.538 14.5038C20.5411 14.5103 20.5445 14.5165 20.5483 14.5226C20.906 15.0884 21.1036 15.7407 21.1202 16.4099C21.1367 17.0792 20.9714 17.7404 20.6421 18.3232H20.643Z" />
</svg>
