<svg width="25" height="24" viewBox="0 0 25 24" fill="none" xmlns="http://www.w3.org/2000/svg">
<path d="M2.625 17.25H22.125C22.3239 17.25 22.5147 17.171 22.6553 17.0303C22.796 16.8897 22.875 16.6989 22.875 16.5C22.875 16.3011 22.796 16.1103 22.6553 15.9697C22.5147 15.829 22.3239 15.75 22.125 15.75H21.375V14.25C21.3723 11.9937 20.5232 9.82058 18.9957 8.16006C17.4681 6.49954 15.3732 5.47248 13.125 5.28188V3.75H14.625C14.8239 3.75 15.0147 3.67098 15.1553 3.53033C15.296 3.38968 15.375 3.19891 15.375 3C15.375 2.80109 15.296 2.61032 15.1553 2.46967C15.0147 2.32902 14.8239 2.25 14.625 2.25H10.125C9.92609 2.25 9.73532 2.32902 9.59467 2.46967C9.45402 2.61032 9.375 2.80109 9.375 3C9.375 3.19891 9.45402 3.38968 9.59467 3.53033C9.73532 3.67098 9.92609 3.75 10.125 3.75H11.625V5.28188C9.3768 5.47248 7.28189 6.49954 5.75434 8.16006C4.22678 9.82058 3.37773 11.9937 3.375 14.25V15.75H2.625C2.42609 15.75 2.23532 15.829 2.09467 15.9697C1.95402 16.1103 1.875 16.3011 1.875 16.5C1.875 16.6989 1.95402 16.8897 2.09467 17.0303C2.23532 17.171 2.42609 17.25 2.625 17.25ZM4.875 14.25C4.875 12.2609 5.66518 10.3532 7.0717 8.9467C8.47822 7.54018 10.3859 6.75 12.375 6.75C14.3641 6.75 16.2718 7.54018 17.6783 8.9467C19.0848 10.3532 19.875 12.2609 19.875 14.25V15.75H4.875V14.25ZM22.875 19.5C22.875 19.6989 22.796 19.8897 22.6553 20.0303C22.5147 20.171 22.3239 20.25 22.125 20.25H2.625C2.42609 20.25 2.23532 20.171 2.09467 20.0303C1.95402 19.8897 1.875 19.6989 1.875 19.5C1.875 19.3011 1.95402 19.1103 2.09467 18.9697C2.23532 18.829 2.42609 18.75 2.625 18.75H22.125C22.3239 18.75 22.5147 18.829 22.6553 18.9697C22.796 19.1103 22.875 19.3011 22.875 19.5Z" />
</svg>
