<svg width="21" height="20" viewBox="0 0 21 20" fill="none" xmlns="http://www.w3.org/2000/svg">
<g clip-path="url(#clip0_354_705)">
<path d="M4.36792 11.3429C4.36792 14.9309 7.28692 17.8494 10.8749 17.8494C14.4629 17.8494 17.3819 14.9304 17.3819 11.3429C17.3819 7.75544 14.4629 4.83594 10.8749 4.83594C7.28692 4.83594 4.36792 7.75494 4.36792 11.3429ZM6.79642 14.9414L9.50392 9.97194L14.4734 7.26444C14.5434 7.21194 14.6224 7.20494 14.6969 7.22344C14.9179 7.25894 15.0829 7.51094 14.9529 7.74394L12.2454 12.7134L7.27592 15.4209C7.20592 15.4734 7.12692 15.4804 7.05242 15.4619C6.83142 15.4264 6.66642 15.1744 6.79642 14.9414Z" fill="#ECEFF1"/>
<path d="M11.843 10.3751C12.0915 10.6236 12.2455 10.9661 12.2455 11.3436C12.2455 11.7211 12.1085 12.0631 11.834 12.3031L11.8685 12.3376L12.2455 12.7146L14.953 7.74511C15.0825 7.51211 14.918 7.26011 14.697 7.22461C14.768 7.24261 14.8345 7.28361 14.8845 7.33411L11.843 10.3751Z" fill="#FF3D00"/>
<path d="M7.05247 15.4627C6.98147 15.4447 6.91497 15.4037 6.86497 15.3532L9.90647 12.3117C9.65797 12.0632 9.50397 11.7207 9.50397 11.3437C9.50397 10.9667 9.64097 10.6242 9.91547 10.3842L9.50397 9.97266L6.79647 14.9422C6.66697 15.1757 6.83147 15.4272 7.05247 15.4627Z" fill="white"/>
<path d="M11.8449 10.3751C12.0899 10.6251 12.2449 10.9651 12.2449 11.3451C12.2449 11.7201 12.1099 12.0651 11.8349 12.3051L11.3599 11.8251C11.4849 11.7051 11.5599 11.5301 11.5599 11.3451C11.5599 10.9651 11.2499 10.6601 10.8749 10.6601C10.6849 10.6601 10.5149 10.7351 10.3899 10.8601L9.91488 10.3851L9.87988 10.3501L9.50488 9.9701L14.4749 7.2651C14.5449 7.2101 14.6249 7.2051 14.6949 7.2251C14.7699 7.2401 14.8349 7.2851 14.8849 7.3351L11.8449 10.3751Z" fill="#DD2C00"/>
<path d="M12.245 12.7148L7.27499 15.4198C7.20499 15.4748 7.12499 15.4798 7.05499 15.4598C6.97999 15.4448 6.91499 15.4048 6.86499 15.3548L9.90499 12.3098C9.65999 12.0648 9.50499 11.7198 9.50499 11.3448C9.50499 10.9648 9.63999 10.6248 9.91499 10.3848L10.39 10.8598C10.265 10.9848 10.19 11.1548 10.19 11.3448C10.19 11.7198 10.5 12.0298 10.875 12.0298C11.065 12.0298 11.235 11.9498 11.36 11.8248L11.835 12.3048L11.87 12.3348L12.245 12.7148Z" fill="#ABA599"/>
<path d="M10.875 10.6577C10.6865 10.6577 10.515 10.7347 10.391 10.8592C10.267 10.9837 10.1895 11.1547 10.1895 11.3432C10.1895 11.7202 10.498 12.0287 10.875 12.0287C11.0635 12.0287 11.235 11.9517 11.359 11.8272C11.483 11.7027 11.5605 11.5317 11.5605 11.3432C11.5605 10.9662 11.252 10.6577 10.875 10.6577Z" fill="white"/>
<path d="M12.455 3.595C12.635 3.31 12.74 2.975 12.74 2.615C12.74 1.585 11.905 0.75 10.875 0.75C9.84497 0.75 9.00997 1.585 9.00997 2.615C9.00997 2.975 9.11497 3.31 9.29497 3.595C5.68997 4.33 2.96997 7.525 2.96997 11.345C2.96997 15.705 6.51497 19.25 10.875 19.25C15.235 19.25 18.78 15.705 18.78 11.345C18.78 7.525 16.06 4.33 12.455 3.595ZM10.875 1.805C11.32 1.805 11.685 2.17 11.685 2.615C11.685 3.06 11.32 3.425 10.875 3.425C10.43 3.425 10.065 3.06 10.065 2.615C10.065 2.17 10.43 1.805 10.875 1.805ZM10.875 17.85C7.28497 17.85 4.36997 14.93 4.36997 11.345C4.36997 7.76 7.28497 4.835 10.875 4.835C14.465 4.835 17.38 7.755 17.38 11.345C17.38 14.935 14.465 17.85 10.875 17.85Z" fill="#685E4E"/>
</g>
<defs>
<clipPath id="clip0_354_705">
<rect width="20" height="20" fill="white" transform="translate(0.875)"/>
</clipPath>
</defs>
</svg>
