<svg width="21" height="20" viewBox="0 0 21 20" fill="none" xmlns="http://www.w3.org/2000/svg">
<g clip-path="url(#clip0_354_681)">
<path d="M9.28053 14.5049H11.47C11.959 14.5049 12.3555 14.9019 12.3555 15.3904V18.4654H8.39453V15.3904C8.39453 14.9014 8.79153 14.5049 9.28003 14.5049H9.28053Z" fill="#6B7683"/>
<path d="M17.933 7.3128L10.8935 1.7153C10.59 1.4738 10.16 1.4738 9.85599 1.7153L2.81749 7.3128C2.41999 7.6288 2.18799 8.1093 2.18799 8.6173V16.4658C2.18799 17.5703 3.08349 18.4658 4.18799 18.4658H8.70849V15.3383C8.70849 14.8783 9.08149 14.5048 9.54199 14.5048H11.2085C11.6685 14.5048 12.042 14.8778 12.042 15.3383V18.4658H16.562C17.6665 18.4658 18.562 17.5703 18.562 16.4658V8.6173C18.562 8.1093 18.331 7.6288 17.933 7.3128Z" fill="#DAD8D0"/>
<path d="M17.9325 7.3123L10.8935 1.7153C10.59 1.4738 10.16 1.4738 9.8565 1.7153L2.817 7.3128C2.4195 7.6288 2.1875 8.1093 2.1875 8.6173V11.1468L9.856 5.0488C10.1595 4.8073 10.5895 4.8073 10.8935 5.0488L18.5615 11.1468V8.6173C18.5615 8.1093 18.3295 7.6288 17.932 7.3123H17.9325Z" fill="#F2A000"/>
</g>
<defs>
<clipPath id="clip0_354_681">
<rect width="20" height="20" fill="white" transform="translate(0.375)"/>
</clipPath>
</defs>
</svg>
