<svg width="23" height="23" viewBox="0 0 23 23" fill="none" xmlns="http://www.w3.org/2000/svg">
<path d="M20.686 0.592437L18.9078 1.28121C15.2974 2.67954 12.2322 5.20179 10.1649 8.47515L6.55151 14.198L7.67714 15.3238L8.80277 16.4495L14.525 12.8358C17.7986 10.7682 20.3206 7.70265 21.7182 4.09193L22.4069 2.31346C22.8242 1.23599 21.764 0.175627 20.6866 0.593048L20.686 0.592437Z" fill="#4A4A4A"/>
<path d="M6.28886 20.9021L7.24705 18.6292C7.54709 17.9172 7.98402 17.2706 8.53278 16.726L8.83588 16.4253L6.57973 14.1689L6.2693 14.4794C5.72849 15.0203 5.08806 15.4512 4.38348 15.7482L2.09922 16.7114C1.3818 17.0139 0.908819 17.7057 0.886209 18.4837C0.858099 19.4493 0.848321 20.929 0.5 22.2038L3.21507 19.4885C2.99141 19.0521 2.95536 18.4043 3.32018 18.0388C3.773 17.5859 4.50753 17.5859 4.96096 18.0388C5.41439 18.4917 5.41377 19.2263 4.96096 19.6798C4.59553 20.0452 3.94777 20.0092 3.51145 19.7849L0.796379 22.5002C2.07111 22.1519 3.55056 22.1421 4.51608 22.114C5.29461 22.0914 5.98575 21.6183 6.28886 20.9008V20.9021Z" fill="#C2C2C2"/>
</svg>
