<svg width="41" height="41" viewBox="0 0 41 41" fill="none" xmlns="http://www.w3.org/2000/svg">
<g clip-path="url(#clip0_1156_462)">
<path d="M20.5198 38.2207C30.1848 38.2207 38.0198 30.3857 38.0198 20.7207C38.0198 11.0557 30.1848 3.2207 20.5198 3.2207C10.8548 3.2207 3.01978 11.0557 3.01978 20.7207C3.01978 30.3857 10.8548 38.2207 20.5198 38.2207Z" fill="#FFC84D"/>
<path d="M20.5197 29.6149C18.8827 29.6149 17.6047 29.8979 16.7327 30.1829C16.2807 30.3309 15.9107 29.7929 16.2047 29.4199C16.9917 28.4219 18.3787 27.2329 20.5197 27.2329C22.6607 27.2329 24.0467 28.4219 24.8347 29.4199C25.1297 29.7939 24.7597 30.3309 24.3067 30.1829C23.4347 29.8979 22.1567 29.6149 20.5197 29.6149Z" fill="#FF6D00"/>
<path d="M14.8088 22.0786C14.8088 22.0786 11.9888 25.1036 11.9888 27.5436C11.9888 29.1006 13.2518 30.3596 14.8088 30.3606C16.3658 30.3606 17.6288 29.1006 17.6288 27.5436C17.6288 25.1036 14.8088 22.0786 14.8088 22.0786Z" fill="white"/>
<path d="M13.7378 11.2917C12.5978 11.8237 12.0618 12.3917 11.6158 12.8987C11.3588 13.1907 10.9948 13.0567 10.9978 12.6407C11.0048 11.7417 11.5598 10.5207 13.0538 9.82373C14.5478 9.12773 15.8398 9.48673 16.5328 10.0597C16.8538 10.3247 16.7228 10.6907 16.3328 10.6997C15.6578 10.7147 14.8778 10.7607 13.7378 11.2917Z" fill="black"/>
<path d="M27.3017 11.2917C28.4417 11.8237 28.9777 12.3917 29.4237 12.8987C29.6807 13.1907 30.0447 13.0567 30.0417 12.6407C30.0347 11.7417 29.4797 10.5207 27.9857 9.82373C26.4917 9.12773 25.1997 9.48673 24.5067 10.0597C24.1857 10.3247 24.3167 10.6907 24.7067 10.6997C25.3817 10.7147 26.1617 10.7607 27.3017 11.2917Z" fill="black"/>
<path d="M15.9419 19.8418C17.1094 19.8418 18.0559 18.8953 18.0559 17.7278C18.0559 16.5602 17.1094 15.6138 15.9419 15.6138C14.7744 15.6138 13.8279 16.5602 13.8279 17.7278C13.8279 18.8953 14.7744 19.8418 15.9419 19.8418Z" fill="black"/>
<path d="M25.0979 19.8418C26.2654 19.8418 27.2119 18.8953 27.2119 17.7278C27.2119 16.5602 26.2654 15.6138 25.0979 15.6138C23.9304 15.6138 22.9839 16.5602 22.9839 17.7278C22.9839 18.8953 23.9304 19.8418 25.0979 19.8418Z" fill="black"/>
</g>
<defs>
<clipPath id="clip0_1156_462">
<rect width="40" height="40" fill="white" transform="translate(0.519775 0.720703)"/>
</clipPath>
</defs>
</svg>
