<svg width="21" height="20" viewBox="0 0 21 20" fill="none" xmlns="http://www.w3.org/2000/svg">
<g clip-path="url(#clip0_354_717)">
<path d="M16.842 4.19287H4.408C3.42328 4.19287 2.625 4.99115 2.625 5.97587V16.2824C2.625 17.2671 3.42328 18.0654 4.408 18.0654H16.842C17.8267 18.0654 18.625 17.2671 18.625 16.2824V5.97587C18.625 4.99115 17.8267 4.19287 16.842 4.19287Z" fill="#2E3D51"/>
<path d="M14.9359 6.08887H6.31391C5.38331 6.08887 4.62891 6.84327 4.62891 7.77387V12.8434C4.62891 13.774 5.38331 14.5284 6.31391 14.5284H14.9359C15.8665 14.5284 16.6209 13.774 16.6209 12.8434V7.77387C16.6209 6.84327 15.8665 6.08887 14.9359 6.08887Z" fill="#D7C39B"/>
<path d="M10.7094 5.39395L4.5879 1.61845C4.3529 1.47345 4.2804 1.16545 4.4249 0.929949C4.5699 0.695449 4.8769 0.621949 5.1134 0.766949L10.6844 4.20345L16.1189 0.520448C16.3469 0.365948 16.6579 0.425448 16.8134 0.654448C16.9684 0.882948 16.9084 1.19345 16.6794 1.34895L10.7094 5.39395Z" fill="#2E3D51"/>
<path d="M16.399 17.3287C16.9634 17.3287 17.421 16.8711 17.421 16.3067C17.421 15.7422 16.9634 15.2847 16.399 15.2847C15.8345 15.2847 15.377 15.7422 15.377 16.3067C15.377 16.8711 15.8345 17.3287 16.399 17.3287Z" fill="#876945"/>
<path d="M4.8511 17.3287C5.41554 17.3287 5.8731 16.8711 5.8731 16.3067C5.8731 15.7422 5.41554 15.2847 4.8511 15.2847C4.28667 15.2847 3.8291 15.7422 3.8291 16.3067C3.8291 16.8711 4.28667 17.3287 4.8511 17.3287Z" fill="#876945"/>
</g>
<defs>
<clipPath id="clip0_354_717">
<rect width="20" height="20" fill="white" transform="translate(0.625)"/>
</clipPath>
</defs>
</svg>
