<svg width="21" height="20" viewBox="0 0 21 20" fill="none" xmlns="http://www.w3.org/2000/svg">
<g clip-path="url(#clip0_354_690)">
<path fill-rule="evenodd" clip-rule="evenodd" d="M18.4519 9.4301H16.8399L16.5249 8.7476C16.1434 7.9211 15.3159 7.3916 14.4054 7.3916H5.84435C4.93385 7.3916 4.10635 7.9211 3.72485 8.7476L3.40985 9.4301H1.79785V17.1961H1.80635C1.83635 18.0551 2.53485 18.7881 3.44935 18.7881H16.8004C17.7149 18.7881 18.4134 18.0551 18.4434 17.1961H18.4519V9.4301Z" fill="#F79420"/>
<path fill-rule="evenodd" clip-rule="evenodd" d="M16.8007 11.1997H3.44968C2.37118 11.1997 1.58268 10.1822 1.85118 9.13818L3.72568 5.07768C4.10718 4.25118 4.93468 3.72168 5.84518 3.72168H14.4062C15.3167 3.72168 16.1442 4.25118 16.5257 5.07768L18.4002 9.13818C18.6687 10.1827 17.8802 11.1997 16.8017 11.1997H16.8007Z" fill="#FFC164"/>
<path d="M13.5535 7.7792H6.696C6.358 7.7792 6.0835 7.5052 6.0835 7.1667C6.0835 6.8282 6.3575 6.5542 6.696 6.5542H13.5535C13.8915 6.5542 14.166 6.8282 14.166 7.1667C14.166 7.5052 13.892 7.7792 13.5535 7.7792Z" fill="#F69B31"/>
<path d="M7.27579 1.28857H12.9743C13.2943 1.28857 13.5538 1.54807 13.5538 1.86807V7.16657H6.69629V1.86807C6.69629 1.54807 6.95579 1.28857 7.27579 1.28857Z" fill="#E2E5E8"/>
</g>
<defs>
<clipPath id="clip0_354_690">
<rect width="20" height="20" fill="white" transform="translate(0.125)"/>
</clipPath>
</defs>
</svg>
